<svg width="480" height="549" viewBox="0 0 480 549" fill="none" xmlns="http://www.w3.org/2000/svg">
<path opacity="0.2" d="M48.2981 306.446C47.679 306.804 46.916 306.804 46.2969 306.446L2.99878 281.431C1.66583 280.661 1.6662 278.736 2.99944 277.967L36.587 258.579C37.2057 258.222 37.9679 258.222 38.5867 258.579L81.8852 283.572C83.2184 284.342 83.2189 286.266 81.8861 287.036L48.2981 306.446Z" fill="#0D302B"/>
<path d="M47.2975 243.846L0 216.545L37.5868 194.824L84.8843 222.15L47.2975 243.846Z" fill="#567FCF"/>
<path d="M84.8837 251.455V222.148L47.2969 243.845V273.152L84.8837 251.455Z" fill="#191A38"/>
<path d="M0 216.547V245.854L47.2975 273.155V243.848L0 216.547Z" fill="url(#paint0_linear_1_447)"/>
<path d="M29.0839 209.684L8.59961 221.522V227.852L14.6869 231.356V225.026L35.1713 213.211L29.0839 209.684Z" fill="#99FFB0"/>
<path d="M42.1035 217.197L21.6191 229.012V235.366L27.6823 238.869V232.539L48.1666 220.701L42.1035 217.197Z" fill="#99FFB0"/>
<path d="M55.124 224.713L34.6396 236.552V242.882L40.727 246.385V240.055L61.1871 228.24L55.124 224.713Z" fill="#99FFB0"/>
<path d="M29.084 209.684V212.245L32.9973 214.443L35.1713 213.211L29.084 209.684Z" fill="#0D302B"/>
<path d="M10.822 226.547L8.59961 227.852L14.6869 231.355V228.721L10.822 226.547Z" fill="#0D302B"/>
<path d="M29.0839 209.684L8.59961 221.522V227.852L10.822 226.548V222.803L29.1081 212.245L29.0839 209.684Z" fill="#0D302B"/>
<path d="M42.1045 217.197V219.758L45.9936 221.957L48.1677 220.701L42.1045 217.197Z" fill="#0D302B"/>
<path d="M23.8173 234.061L21.6191 235.365L27.6823 238.869V236.235L23.8173 234.061Z" fill="#0D302B"/>
<path d="M42.1035 217.197L21.6191 229.012V235.366L23.8173 234.061V230.317L42.1035 219.758V217.197Z" fill="#0D302B"/>
<path d="M55.125 224.713V227.274L59.0141 229.473L61.1882 228.24L55.125 224.713Z" fill="#0D302B"/>
<path d="M36.8388 241.576L34.6406 242.881L40.7279 246.384V243.751L36.8388 241.576Z" fill="#0D302B"/>
<path d="M55.1249 224.713L34.6406 236.552V242.882L36.8388 241.577V237.832L55.1249 227.274V224.713Z" fill="#0D302B"/>
<path opacity="0.2" d="M292.004 549.001C395.297 549.001 479.034 500.643 479.034 440.99C479.034 381.337 395.297 332.979 292.004 332.979C188.71 332.979 104.974 381.337 104.974 440.99C104.974 500.643 188.71 549.001 292.004 549.001Z" fill="#0D3010"/>
<path d="M390.433 93.0331L231.824 1.36738C229.264 -0.106425 226.921 -0.227228 225.109 0.763361L214.335 7.04515L221.365 11.2974V382.962C221.365 390.645 226.051 399.584 231.8 402.918L388.549 493.521L386.302 501.47L397.148 495.164C399.395 493.908 400.82 490.936 400.82 486.684V112.99C400.82 105.307 396.134 96.3673 390.384 93.0331H390.433Z" fill="#191A38"/>
<path d="M379.418 500.963L220.834 409.298C215.061 405.963 210.399 397.024 210.399 389.341V15.6712C210.399 7.98809 215.085 4.43647 220.834 7.77065L379.418 99.4364C385.192 102.771 389.854 111.71 389.854 119.393V493.087C389.854 500.77 385.168 504.322 379.418 500.987V500.963Z" fill="#567FCF"/>
<path d="M389.853 493.329L210.373 389.607V15.4062L389.853 119.128V493.329Z" fill="url(#paint1_linear_1_447)"/>
<g filter="url(#filter0_b_1_447)">
<path d="M361.181 500.503L201.002 407.919C194.987 404.44 191.291 398.038 191.291 391.103V39.2027C191.291 34.2739 196.605 31.2055 200.881 33.6699L361.06 126.254C367.075 129.733 370.771 136.135 370.771 143.07V494.995C370.771 499.923 365.456 502.992 361.181 500.527V500.503Z" fill="white" fill-opacity="0.3"/>
</g>
<path opacity="0.3" d="M364.393 502.098C363.185 502.098 361.953 501.784 360.842 501.131L200.663 408.547C194.455 404.972 190.614 398.279 190.614 391.103V39.2027C190.614 36.6416 191.943 34.3464 194.165 33.0659C196.388 31.7853 199.045 31.7853 201.267 33.0659L361.446 125.65C367.654 129.225 371.495 135.918 371.495 143.094V495.019C371.495 497.58 370.166 499.875 367.944 501.155C366.833 501.808 365.625 502.122 364.393 502.122V502.098ZM197.692 33.5007C196.726 33.5007 195.735 33.7665 194.842 34.2739C193.054 35.2886 191.991 37.149 191.991 39.2027V391.128C191.991 397.796 195.566 404.005 201.34 407.339L361.518 499.923C363.306 500.962 365.432 500.962 367.195 499.923C368.983 498.909 370.045 497.048 370.045 494.994V143.07C370.045 136.401 366.47 130.192 360.697 126.858L200.518 34.2739C199.625 33.7665 198.658 33.5007 197.668 33.5007H197.692Z" fill="#0D302B"/>
<path d="M311.974 69.2839L288.253 55.5848C287.456 55.1257 286.804 53.8694 286.804 52.8063C286.804 51.7432 287.456 51.2358 288.253 51.6949L311.974 65.394C312.772 65.8531 313.424 67.1094 313.424 68.1725C313.424 69.2356 312.772 69.7429 311.974 69.2839Z" fill="#0D302B"/>
<path opacity="0.2" d="M337.412 308.206C341.045 310.317 344 308.07 344 303.225V157.63C344 152.785 341.045 147.155 337.412 145.044L191.57 61C191.217 62.6782 191 64.4376 191 66.2511V223.81L337.385 308.179L337.412 308.206Z" fill="#093832"/>
<rect x="0.433022" y="0.750016" width="289" height="151" rx="10.5" transform="matrix(0.866007 0.500033 3.7683e-05 1 76.058 15.7835)" fill="#191A38" stroke="url(#paint2_linear_1_447)"/>
<path d="M257.691 229.349C256.688 228.77 255.854 227.907 255.187 226.761C254.528 225.61 254.198 224.449 254.198 223.277C254.198 222.104 254.528 221.327 255.187 220.946C255.853 220.562 256.688 220.659 257.69 221.238C258.221 221.544 258.712 221.947 259.165 222.448C259.618 222.948 259.996 223.506 260.3 224.123C260.611 224.742 260.824 225.377 260.941 226.027L259.815 225.377C259.653 224.761 259.385 224.199 259.01 223.691C258.635 223.176 258.195 222.773 257.69 222.481C257.011 222.089 256.449 222.029 256.002 222.302C255.556 222.575 255.333 223.122 255.333 223.943C255.333 224.757 255.556 225.558 256.002 226.346C256.449 227.127 257.011 227.713 257.691 228.105C258.208 228.404 258.658 228.507 259.039 228.413C259.421 228.312 259.686 228.029 259.835 227.562L260.97 228.217C260.795 229.035 260.41 229.549 259.815 229.758C259.22 229.959 258.512 229.823 257.691 229.349Z" fill="#EFEBE8"/>
<path d="M266.436 228.214L267.27 228.696L267.27 234.746L266.397 234.241L266.291 233.44C265.786 233.739 265.155 233.67 264.399 233.233C263.616 232.781 262.963 232.102 262.439 231.194C261.921 230.29 261.663 229.387 261.663 228.483C261.663 227.572 261.921 226.967 262.439 226.668C262.963 226.366 263.616 226.44 264.398 226.892C265.168 227.337 265.805 228.003 266.31 228.892L266.436 228.214ZM263.244 230.819C263.574 231.383 263.985 231.807 264.476 232.09C264.974 232.378 265.382 232.427 265.699 232.236C266.022 232.042 266.184 231.661 266.184 231.093C266.184 230.518 266.022 229.951 265.699 229.391C265.382 228.834 264.974 228.412 264.476 228.125C264.153 227.938 263.858 227.854 263.593 227.872C263.335 227.895 263.131 228.016 262.982 228.237C262.833 228.449 262.759 228.743 262.759 229.116C262.759 229.684 262.921 230.251 263.244 230.819Z" fill="#EFEBE8"/>
<path d="M270.552 236.786C269.912 236.417 269.398 235.933 269.01 235.335C268.622 234.738 268.421 234.122 268.408 233.487L269.466 234.098C269.479 234.411 269.585 234.712 269.786 234.999C269.993 235.283 270.261 235.52 270.591 235.711C270.785 235.823 270.957 235.892 271.105 235.918C271.261 235.948 271.384 235.929 271.474 235.862C271.565 235.795 271.61 235.679 271.61 235.515C271.61 235.403 271.587 235.293 271.542 235.184C271.497 235.069 271.442 234.966 271.377 234.876C271.312 234.787 271.219 234.684 271.096 234.568C270.979 234.456 270.873 234.361 270.776 234.282C270.685 234.208 270.562 234.111 270.407 233.991C270.245 233.868 270.116 233.767 270.019 233.689C269.922 233.61 269.799 233.506 269.65 233.375C269.501 233.237 269.378 233.114 269.281 233.005C269.191 232.893 269.091 232.761 268.981 232.608C268.871 232.454 268.783 232.303 268.719 232.154C268.66 232.008 268.609 231.844 268.563 231.661C268.525 231.474 268.505 231.284 268.505 231.09C268.505 230.544 268.69 230.21 269.058 230.087C269.433 229.967 269.925 230.083 270.533 230.434C271.141 230.785 271.629 231.243 271.998 231.807C272.367 232.371 272.554 232.949 272.561 233.543L271.542 232.955C271.535 232.667 271.442 232.397 271.261 232.143C271.079 231.881 270.83 231.659 270.513 231.476C270.216 231.304 269.98 231.235 269.805 231.269C269.631 231.302 269.543 231.428 269.543 231.644C269.543 231.734 269.556 231.82 269.582 231.902C269.608 231.984 269.65 232.068 269.708 232.154C269.773 232.243 269.831 232.322 269.883 232.389C269.941 232.453 270.025 232.531 270.135 232.624C270.245 232.718 270.336 232.792 270.407 232.848C270.478 232.904 270.581 232.983 270.717 233.084C270.892 233.222 271.021 233.326 271.105 233.397C271.196 233.465 271.322 233.571 271.484 233.717C271.645 233.855 271.772 233.976 271.862 234.081C271.953 234.185 272.056 234.32 272.173 234.484C272.295 234.645 272.386 234.802 272.444 234.955C272.509 235.104 272.564 235.278 272.609 235.476C272.654 235.674 272.677 235.873 272.677 236.075C272.677 236.665 272.483 237.024 272.095 237.151C271.707 237.277 271.193 237.156 270.552 236.786Z" fill="#EFEBE8"/>
<path d="M276.602 233.95C277.217 234.305 277.702 234.813 278.057 235.474C278.413 236.135 278.591 236.857 278.591 237.641L278.591 241.282L277.514 240.661L277.514 237.266C277.514 236.9 277.469 236.568 277.378 236.269C277.288 235.97 277.152 235.705 276.971 235.473C276.796 235.238 276.576 235.044 276.311 234.891C275.904 234.656 275.567 234.633 275.302 234.824C275.037 235.014 274.904 235.378 274.904 235.916L274.905 239.154L273.828 238.532L273.827 230.309L274.904 230.931L274.904 233.787C275.331 233.489 275.897 233.543 276.602 233.95Z" fill="#EFEBE8"/>
<path d="M282.856 237.55C283.645 238.005 284.295 238.683 284.806 239.583C285.324 240.479 285.582 241.383 285.582 242.294C285.582 243.205 285.324 243.814 284.806 244.12C284.295 244.423 283.645 244.346 282.856 243.891C282.125 243.469 281.508 242.836 281.003 241.992L280.867 242.597L280.052 242.126L280.052 233.903L281.129 234.525L281.129 237.258C281.614 237.068 282.19 237.165 282.856 237.55ZM281.537 241.37C281.867 241.941 282.277 242.369 282.769 242.653C283.26 242.936 283.668 242.985 283.991 242.798C284.315 242.604 284.476 242.223 284.476 241.656C284.476 241.088 284.315 240.524 283.991 239.964C283.668 239.396 283.26 238.971 282.769 238.687C282.445 238.5 282.151 238.416 281.886 238.435C281.627 238.457 281.423 238.578 281.275 238.799C281.126 239.012 281.052 239.305 281.052 239.678C281.052 240.238 281.213 240.802 281.537 241.37Z" fill="#EFEBE8"/>
<path d="M291.117 242.465L291.951 242.947L291.952 248.997L291.078 248.492L290.972 247.691C290.467 247.99 289.837 247.921 289.08 247.484C288.297 247.032 287.644 246.352 287.12 245.445C286.603 244.541 286.344 243.638 286.344 242.734C286.344 241.823 286.602 241.218 287.12 240.919C287.644 240.617 288.297 240.691 289.08 241.143C289.849 241.588 290.486 242.254 290.991 243.143L291.117 242.465ZM287.925 245.07C288.255 245.634 288.666 246.057 289.157 246.341C289.655 246.629 290.063 246.677 290.38 246.487C290.703 246.293 290.865 245.912 290.865 245.344C290.865 244.769 290.703 244.202 290.38 243.641C290.063 243.085 289.655 242.663 289.157 242.375C288.834 242.189 288.54 242.105 288.274 242.123C288.016 242.146 287.812 242.267 287.663 242.487C287.514 242.7 287.44 242.993 287.44 243.367C287.44 243.934 287.602 244.502 287.925 245.07Z" fill="#EFEBE8"/>
<path d="M295.845 251.39C295.069 250.942 294.415 250.262 293.885 249.351C293.361 248.436 293.099 247.531 293.099 246.634C293.099 245.731 293.361 245.128 293.885 244.825C294.415 244.526 295.072 244.603 295.854 245.055C296.495 245.425 297.051 245.955 297.523 246.646C297.995 247.337 298.302 248.07 298.445 248.847L297.378 248.231C297.242 247.809 297.038 247.422 296.766 247.071C296.495 246.713 296.187 246.435 295.845 246.237C295.541 246.061 295.263 245.987 295.01 246.013C294.758 246.039 294.558 246.162 294.409 246.382C294.267 246.599 294.195 246.894 294.195 247.267C294.195 247.828 294.354 248.39 294.671 248.953C294.988 249.517 295.379 249.934 295.845 250.203C296.188 250.401 296.492 250.475 296.757 250.427C297.028 250.382 297.235 250.214 297.378 249.923L298.464 250.55C298.316 251.174 298.002 251.564 297.523 251.721C297.051 251.874 296.492 251.764 295.845 251.39Z" fill="#EFEBE8"/>
<path d="M302.928 255.334L301.366 251.856L300.706 251.475L300.706 254.051L299.629 253.43L299.629 245.207L300.706 245.828L300.706 250.343L301.366 250.724L302.782 249.201L304.063 249.94L302.287 251.817L304.247 256.096L302.928 255.334Z" fill="#EFEBE8"/>
<path d="M257.691 243.353C256.689 242.774 255.854 241.911 255.188 240.765C254.528 239.614 254.198 238.453 254.198 237.28C254.198 236.108 254.528 235.331 255.188 234.95C255.854 234.566 256.688 234.663 257.691 235.242C258.221 235.548 258.713 235.951 259.166 236.451C259.618 236.952 259.997 237.51 260.301 238.126C260.611 238.746 260.825 239.381 260.941 240.031L259.816 239.381C259.654 238.765 259.386 238.203 259.01 237.695C258.635 237.18 258.195 236.776 257.691 236.485C257.012 236.093 256.449 236.033 256.003 236.306C255.557 236.578 255.333 237.125 255.333 237.947C255.333 238.761 255.557 239.562 256.003 240.35C256.449 241.131 257.012 241.717 257.691 242.109C258.209 242.408 258.658 242.51 259.04 242.417C259.421 242.316 259.686 242.032 259.835 241.566L260.97 242.221C260.796 243.039 260.411 243.552 259.816 243.762C259.221 243.963 258.513 243.827 257.691 243.353Z" fill="#EFEBE8"/>
<path d="M264.564 241.103L265.03 241.372L265.03 242.548L264.467 242.224C263.574 241.708 263.128 242.011 263.128 243.131L263.128 246.357L262.051 245.736L262.051 239.686L262.779 240.106L262.963 241.042C263.338 240.683 263.872 240.704 264.564 241.103Z" fill="#EFEBE8"/>
<path d="M269.605 244.047L270.759 244.714L268.353 249.486C268.049 250.08 267.739 250.435 267.422 250.551C267.111 250.678 266.694 250.59 266.17 250.287L265.637 249.979L265.637 248.859L266.083 249.117C266.426 249.315 266.678 249.382 266.84 249.318C267.001 249.255 267.179 249.033 267.373 248.652L267.49 248.439L265.21 241.51L266.384 242.188L268.043 247.369L269.605 244.047Z" fill="#EFEBE8"/>
<path d="M274.434 246.69C274.951 246.989 275.417 247.396 275.831 247.911C276.245 248.419 276.568 248.983 276.801 249.603C277.034 250.223 277.151 250.832 277.151 251.429C277.151 252.34 276.892 252.949 276.375 253.255C275.864 253.558 275.217 253.483 274.434 253.031C273.761 252.643 273.183 252.066 272.697 251.3L272.698 254.056L271.621 253.434L271.62 245.211L272.348 245.631L272.552 246.488C273.056 246.19 273.684 246.257 274.434 246.69ZM273.124 250.527C273.448 251.087 273.855 251.509 274.347 251.793C274.845 252.081 275.256 252.131 275.579 251.944C275.902 251.75 276.064 251.369 276.064 250.802C276.064 250.234 275.902 249.67 275.579 249.11C275.255 248.542 274.848 248.117 274.356 247.833C274.033 247.646 273.739 247.562 273.473 247.581C273.208 247.599 273.001 247.719 272.853 247.939C272.71 248.156 272.639 248.451 272.639 248.824C272.639 249.392 272.801 249.96 273.124 250.527Z" fill="#EFEBE8"/>
<path d="M280.581 255.303L281.173 255.645L281.173 256.777L280.378 256.317C279.996 256.097 279.666 255.821 279.388 255.488C279.11 255.156 278.897 254.786 278.748 254.379C278.599 253.965 278.525 253.537 278.525 253.096L278.524 250.262L277.583 249.719L277.583 249.483L279.407 248.296L279.592 248.402L279.592 249.814L281.144 250.71L281.144 251.774L279.601 250.884L279.601 253.617C279.601 253.976 279.686 254.301 279.854 254.592C280.022 254.883 280.264 255.12 280.581 255.303Z" fill="#EFEBE8"/>
<path d="M286.58 259.148C286.05 259.439 285.384 259.353 284.582 258.89C283.779 258.427 283.11 257.742 282.573 256.834C282.043 255.923 281.778 255.012 281.778 254.101C281.778 253.503 281.897 253.031 282.136 252.684C282.382 252.34 282.719 252.157 283.145 252.135C283.579 252.109 284.057 252.247 284.581 252.549C285.105 252.852 285.581 253.264 286.007 253.787C286.441 254.306 286.777 254.878 287.017 255.501C287.262 256.129 287.385 256.741 287.385 257.339C287.385 258.25 287.117 258.853 286.58 259.148ZM284.581 257.703C284.911 257.893 285.206 257.981 285.464 257.966C285.723 257.944 285.924 257.824 286.066 257.608C286.215 257.387 286.289 257.087 286.289 256.706C286.289 256.131 286.127 255.563 285.804 255.003C285.487 254.446 285.079 254.024 284.581 253.737C284.083 253.449 283.673 253.399 283.349 253.586C283.032 253.776 282.874 254.159 282.874 254.734C282.874 255.309 283.032 255.875 283.349 256.431C283.673 256.991 284.083 257.415 284.581 257.703Z" fill="#EFEBE8"/>
<path d="M257.692 257.356C256.689 256.777 255.855 255.915 255.189 254.768C254.529 253.618 254.199 252.457 254.199 251.284C254.199 250.112 254.529 249.335 255.188 248.954C255.855 248.569 256.689 248.666 257.691 249.245C258.222 249.552 258.713 249.955 259.166 250.455C259.619 250.956 259.997 251.514 260.301 252.13C260.612 252.75 260.825 253.385 260.942 254.035L259.816 253.385C259.654 252.769 259.386 252.207 259.011 251.699C258.636 251.183 258.196 250.78 257.691 250.489C257.012 250.097 256.45 250.037 256.003 250.31C255.557 250.582 255.334 251.129 255.334 251.951C255.334 252.765 255.557 253.566 256.003 254.354C256.45 255.134 257.013 255.721 257.692 256.113C258.209 256.412 258.659 256.514 259.04 256.421C259.422 256.32 259.687 256.036 259.836 255.57L260.971 256.225C260.796 257.043 260.411 257.556 259.816 257.765C259.221 257.967 258.513 257.831 257.692 257.356Z" fill="#EFEBE8"/>
<path d="M266.437 256.222L267.271 256.704L267.271 262.753L266.398 262.249L266.292 261.448C265.787 261.747 265.156 261.678 264.4 261.241C263.617 260.789 262.964 260.109 262.44 259.202C261.922 258.298 261.664 257.394 261.664 256.491C261.664 255.579 261.922 254.974 262.44 254.676C262.964 254.373 263.617 254.448 264.399 254.9C265.169 255.344 265.806 256.011 266.311 256.9L266.437 256.222ZM263.245 258.826C263.575 259.39 263.986 259.814 264.477 260.098C264.975 260.386 265.383 260.434 265.7 260.244C266.023 260.05 266.185 259.669 266.185 259.101C266.185 258.526 266.023 257.958 265.7 257.398C265.383 256.842 264.975 256.42 264.477 256.132C264.154 255.945 263.859 255.861 263.594 255.88C263.336 255.902 263.132 256.024 262.983 256.244C262.834 256.457 262.76 256.75 262.76 257.124C262.76 257.691 262.922 258.259 263.245 258.826Z" fill="#EFEBE8"/>
<path d="M271.32 259.008L271.785 259.277L271.785 260.453L271.223 260.128C270.33 259.613 269.884 259.915 269.884 261.035L269.884 264.262L268.807 263.64L268.807 257.59L269.535 258.01L269.719 258.946C270.094 258.587 270.628 258.608 271.32 259.008Z" fill="#EFEBE8"/>
<path d="M276.548 259.887L277.625 260.509L277.625 268.732L276.81 268.261L276.675 267.499C276.17 267.761 275.552 267.68 274.821 267.258C274.032 266.803 273.379 266.127 272.862 265.23C272.351 264.33 272.095 263.425 272.095 262.514C272.095 261.602 272.351 260.996 272.861 260.693C273.379 260.387 274.032 260.462 274.821 260.917C275.487 261.302 276.063 261.87 276.548 262.62L276.548 259.887ZM273.686 264.855C274.01 265.415 274.417 265.837 274.909 266.121C275.4 266.405 275.808 266.454 276.131 266.267C276.461 266.076 276.626 265.697 276.626 265.13C276.626 264.756 276.552 264.377 276.403 263.993C276.254 263.601 276.047 263.242 275.782 262.917C275.523 262.596 275.232 262.342 274.909 262.155C274.585 261.969 274.291 261.885 274.026 261.903C273.767 261.926 273.563 262.047 273.415 262.267C273.272 262.484 273.201 262.779 273.201 263.152C273.201 263.72 273.363 264.288 273.686 264.855Z" fill="#EFEBE8"/>
<g opacity="0.3">
<mask id="mask0_1_447" style="mask-type:alpha" maskUnits="userSpaceOnUse" x="268" y="162" width="24" height="31">
<path d="M284.448 162.288L268.707 167.565L284.449 192.778L291.304 180.612L284.448 162.288Z" fill="#D9D9D9"/>
</mask>
<g mask="url(#mask0_1_447)">
<circle cx="3" cy="3" r="3" transform="matrix(0.866007 0.500033 3.76396e-05 1 271 166)" fill="white"/>
<circle cx="10" cy="10" r="8.5" transform="matrix(0.866007 0.500033 3.76396e-05 1 265 156)" stroke="white" stroke-width="3"/>
<circle cx="17" cy="17" r="15.5" transform="matrix(0.866007 0.500033 3.76396e-05 1 259 145)" stroke="white" stroke-width="3"/>
</g>
</g>
<path d="M77.0004 29C77.0002 22.9249 81.265 20.4626 86.5261 23.5004L238.943 111.506L238.949 262.506L86.5318 174.5C81.2707 171.463 77.0055 164.075 77.0053 158L77.0004 29Z" fill="url(#paint3_linear_1_447)"/>
<path d="M96.53 145.741L97.6263 146.374L97.6266 154.216L96.6855 153.673L93.1635 146.038L93.1637 151.639L92.0674 151.006L92.0671 143.164L93.0761 143.747L96.5302 151.253L96.53 145.741Z" fill="white"/>
<path d="M103.566 151.596L104.4 152.077L104.4 158.127L103.527 157.623L103.42 156.822C102.916 157.121 102.285 157.052 101.528 156.615C100.746 156.163 100.092 155.483 99.5686 154.576C99.0511 153.672 98.7924 152.768 98.7923 151.864C98.7923 150.953 99.051 150.348 99.5684 150.05C100.092 149.747 100.746 149.822 101.528 150.274C102.298 150.718 102.935 151.385 103.439 152.273L103.566 151.596ZM100.374 154.2C100.704 154.764 101.114 155.188 101.606 155.472C102.104 155.759 102.511 155.808 102.828 155.618C103.152 155.423 103.313 155.043 103.313 154.475C103.313 153.9 103.152 153.332 102.828 152.772C102.511 152.216 102.104 151.794 101.606 151.506C101.282 151.319 100.988 151.235 100.723 151.254C100.464 151.276 100.261 151.398 100.112 151.618C99.963 151.831 99.8886 152.124 99.8887 152.497C99.8887 153.065 100.05 153.633 100.374 154.2Z" fill="white"/>
<path d="M111.796 156.213C112.345 156.531 112.792 157.005 113.134 157.636C113.477 158.267 113.649 158.93 113.649 159.625L113.649 163.467L112.572 162.846L112.572 159.305C112.572 158.984 112.53 158.684 112.446 158.404C112.368 158.127 112.252 157.884 112.096 157.675C111.948 157.47 111.767 157.306 111.553 157.182C111.197 156.977 110.903 156.975 110.67 157.177C110.437 157.371 110.321 157.726 110.321 158.241L110.321 161.546L109.264 160.935L109.263 157.395C109.263 156.902 109.176 156.475 109.001 156.112C108.827 155.743 108.575 155.463 108.245 155.272C107.895 155.07 107.601 155.069 107.362 155.266C107.129 155.461 107.013 155.815 107.013 156.331L107.013 159.636L105.936 159.014L105.936 152.964L106.702 153.407L106.886 154.297C107.087 154.122 107.329 154.038 107.614 154.045C107.899 154.045 108.199 154.137 108.516 154.32C108.866 154.522 109.176 154.794 109.448 155.138C109.719 155.481 109.933 155.862 110.088 156.28C110.276 156.06 110.521 155.944 110.825 155.933C111.129 155.922 111.453 156.015 111.796 156.213Z" fill="white"/>
<path d="M120.084 164.17C120.084 164.282 120.078 164.416 120.065 164.573L115.815 162.119C115.88 162.642 116.055 163.127 116.339 163.576C116.63 164.027 116.989 164.377 117.416 164.623C117.623 164.743 117.817 164.821 117.998 164.858C118.179 164.888 118.338 164.879 118.474 164.83C118.616 164.778 118.732 164.685 118.823 164.55L119.958 165.206C119.751 165.729 119.421 166.042 118.969 166.147C118.516 166.244 117.998 166.124 117.416 165.788C116.647 165.344 116.003 164.67 115.486 163.766C114.975 162.866 114.719 161.964 114.719 161.06C114.719 160.157 114.974 159.55 115.485 159.24C116.003 158.934 116.646 159.003 117.416 159.447C117.94 159.75 118.406 160.164 118.813 160.691C119.221 161.21 119.534 161.776 119.754 162.388C119.974 162.993 120.084 163.587 120.084 164.17ZM117.416 160.568C117.015 160.336 116.672 160.269 116.388 160.366C116.11 160.467 115.925 160.719 115.835 161.122L119.007 162.954C118.943 162.61 118.836 162.287 118.687 161.985C118.538 161.675 118.354 161.4 118.134 161.161C117.921 160.919 117.681 160.721 117.416 160.568Z" fill="white"/>
<path d="M124.885 168.756L127.708 170.386L127.708 171.585L123.769 169.311L123.769 161.469L124.885 162.113L124.885 168.756Z" fill="white"/>
<path d="M132.899 168.533L133.733 169.014L133.733 175.064L132.86 174.56L132.753 173.759C132.249 174.058 131.618 173.989 130.862 173.552C130.079 173.1 129.426 172.42 128.902 171.513C128.384 170.609 128.125 169.705 128.125 168.801C128.125 167.89 128.384 167.285 128.902 166.986C129.425 166.684 130.079 166.759 130.861 167.211C131.631 167.655 132.268 168.322 132.773 169.21L132.899 168.533ZM129.707 171.137C130.037 171.701 130.448 172.125 130.939 172.409C131.437 172.696 131.845 172.745 132.161 172.555C132.485 172.36 132.647 171.979 132.647 171.412C132.647 170.837 132.485 170.269 132.161 169.709C131.844 169.153 131.437 168.731 130.939 168.443C130.616 168.256 130.321 168.172 130.056 168.191C129.797 168.213 129.594 168.335 129.445 168.555C129.296 168.768 129.222 169.061 129.222 169.434C129.222 170.002 129.384 170.57 129.707 171.137Z" fill="white"/>
<path d="M142.584 179.043L143.176 179.385L143.176 180.516L142.38 180.057C141.805 179.725 141.349 179.271 141.012 178.696C140.683 178.117 140.518 177.495 140.518 176.83L140.518 173.996L139.586 173.458L139.586 173.223L141.41 172.036L141.585 172.136L141.585 173.548L143.147 174.45L143.147 175.514L141.594 174.618L141.595 177.351C141.595 177.71 141.679 178.035 141.847 178.326C142.021 178.621 142.267 178.86 142.584 179.043ZM137.18 173.402C137.355 173.54 137.484 173.645 137.568 173.716C137.652 173.779 137.775 173.884 137.937 174.03C138.105 174.171 138.234 174.295 138.325 174.399C138.416 174.504 138.519 174.638 138.635 174.803C138.758 174.963 138.849 175.12 138.907 175.273C138.972 175.423 139.027 175.596 139.072 175.794C139.117 175.992 139.14 176.192 139.14 176.393C139.14 176.983 138.946 177.342 138.558 177.469C138.17 177.596 137.656 177.474 137.015 177.105C136.375 176.735 135.861 176.251 135.473 175.654C135.085 175.056 134.884 174.44 134.871 173.805L135.929 174.416C135.942 174.73 136.048 175.03 136.249 175.318C136.456 175.602 136.724 175.839 137.054 176.029C137.248 176.141 137.42 176.21 137.568 176.237C137.724 176.266 137.846 176.248 137.937 176.181C138.027 176.113 138.073 175.998 138.073 175.833C138.073 175.744 138.06 175.654 138.034 175.564C138.008 175.475 137.963 175.385 137.898 175.296C137.84 175.202 137.778 175.118 137.714 175.043C137.649 174.969 137.565 174.887 137.462 174.797C137.358 174.7 137.264 174.62 137.18 174.556C137.103 174.489 136.999 174.407 136.87 174.31C136.734 174.201 136.621 174.114 136.53 174.046C136.446 173.975 136.336 173.882 136.2 173.766C136.071 173.654 135.964 173.551 135.88 173.458C135.796 173.365 135.699 173.256 135.589 173.133C135.486 173.006 135.401 172.883 135.337 172.764C135.272 172.637 135.207 172.502 135.143 172.36C135.085 172.215 135.039 172.061 135.007 171.901C134.981 171.744 134.968 171.58 134.968 171.408C134.968 170.863 135.152 170.529 135.521 170.405C135.896 170.286 136.388 170.402 136.996 170.753C137.604 171.104 138.092 171.561 138.461 172.125C138.829 172.689 139.017 173.268 139.023 173.862L138.005 173.273C137.998 172.986 137.904 172.715 137.723 172.461C137.542 172.2 137.293 171.978 136.976 171.795C136.679 171.623 136.443 171.554 136.268 171.587C136.093 171.621 136.006 171.746 136.006 171.963C136.006 172.052 136.019 172.138 136.045 172.22C136.071 172.302 136.113 172.386 136.171 172.472C136.236 172.562 136.294 172.64 136.346 172.708C136.404 172.771 136.488 172.849 136.598 172.943C136.708 173.036 136.799 173.111 136.87 173.167C136.941 173.223 137.044 173.301 137.18 173.402Z" fill="white"/>
<path d="M147.177 176.643C147.785 176.994 148.267 177.507 148.623 178.183C148.985 178.863 149.166 179.58 149.166 180.334L149.166 183.975L148.089 183.353L148.089 179.959C148.089 179.413 147.985 178.939 147.779 178.536C147.578 178.129 147.28 177.811 146.886 177.584C146.478 177.348 146.142 177.326 145.877 177.516C145.612 177.707 145.479 178.071 145.479 178.609L145.479 181.846L144.402 181.224L144.402 175.175L145.149 175.606L145.363 176.57C145.563 176.379 145.819 176.288 146.129 176.295C146.446 176.306 146.795 176.422 147.177 176.643Z" fill="white"/>
<path d="M155.012 181.301L155.847 181.783L155.847 187.832L154.974 187.328L154.867 186.527C154.362 186.826 153.732 186.757 152.975 186.32C152.192 185.868 151.539 185.188 151.015 184.281C150.498 183.377 150.239 182.473 150.239 181.57C150.239 180.659 150.498 180.054 151.015 179.755C151.539 179.452 152.192 179.527 152.975 179.979C153.744 180.423 154.382 181.09 154.886 181.979L155.012 181.301ZM151.82 183.906C152.15 184.47 152.561 184.893 153.053 185.177C153.551 185.465 153.958 185.513 154.275 185.323C154.598 185.129 154.76 184.748 154.76 184.18C154.76 183.605 154.598 183.037 154.275 182.477C153.958 181.921 153.55 181.499 153.052 181.211C152.729 181.025 152.435 180.941 152.17 180.959C151.911 180.982 151.707 181.103 151.558 181.323C151.41 181.536 151.335 181.829 151.335 182.203C151.335 182.77 151.497 183.338 151.82 183.906Z" fill="white"/>
<path d="M163.242 185.919C163.792 186.236 164.238 186.71 164.581 187.341C164.924 187.973 165.095 188.635 165.095 189.33L165.096 193.173L164.019 192.551L164.018 189.011C164.018 188.69 163.976 188.389 163.892 188.109C163.815 187.832 163.698 187.59 163.543 187.381C163.394 187.175 163.213 187.011 163 186.888C162.644 186.682 162.35 186.68 162.117 186.882C161.884 187.076 161.768 187.431 161.768 187.946L161.768 191.251L160.71 190.641L160.71 187.1C160.71 186.608 160.623 186.18 160.448 185.818C160.273 185.448 160.021 185.168 159.691 184.977C159.342 184.776 159.048 184.774 158.809 184.972C158.576 185.166 158.459 185.521 158.459 186.036L158.459 189.341L157.383 188.719L157.382 182.67L158.149 183.112L158.333 184.003C158.534 183.827 158.776 183.743 159.061 183.751C159.345 183.751 159.646 183.842 159.963 184.025C160.312 184.227 160.623 184.499 160.894 184.843C161.166 185.187 161.379 185.568 161.535 185.986C161.722 185.765 161.968 185.65 162.272 185.639C162.576 185.627 162.899 185.721 163.242 185.919Z" fill="white"/>
<path d="M171.531 193.875C171.531 193.987 171.524 194.121 171.511 194.278L167.262 191.825C167.327 192.347 167.501 192.833 167.786 193.281C168.077 193.733 168.436 194.082 168.863 194.328C169.07 194.448 169.264 194.526 169.445 194.564C169.626 194.594 169.785 194.584 169.92 194.536C170.063 194.483 170.179 194.39 170.27 194.256L171.405 194.911C171.198 195.434 170.868 195.748 170.415 195.852C169.962 195.949 169.445 195.83 168.863 195.494C168.093 195.049 167.45 194.375 166.932 193.471C166.421 192.571 166.166 191.67 166.166 190.766C166.166 189.862 166.421 189.255 166.932 188.945C167.449 188.639 168.093 188.708 168.863 189.153C169.387 189.455 169.852 189.87 170.26 190.396C170.667 190.915 170.981 191.481 171.201 192.094C171.421 192.699 171.531 193.292 171.531 193.875ZM168.863 190.273C168.462 190.041 168.119 189.974 167.834 190.071C167.556 190.172 167.372 190.424 167.281 190.827L170.454 192.659C170.389 192.316 170.282 191.993 170.134 191.69C169.985 191.38 169.801 191.106 169.581 190.867C169.367 190.624 169.128 190.426 168.863 190.273Z" fill="white"/>
<path d="M195.2 208.307C194.418 207.855 193.797 207.149 193.337 206.19C192.878 205.23 192.649 204.156 192.648 202.969C192.648 201.781 192.875 200.975 193.328 200.549C193.787 200.119 194.411 200.133 195.2 200.588C195.983 201.04 196.6 201.744 197.053 202.7C197.512 203.652 197.742 204.722 197.742 205.91C197.742 207.097 197.512 207.906 197.053 208.335C196.594 208.765 195.976 208.755 195.2 208.307ZM195.2 207.164C195.666 207.433 196.028 207.403 196.287 207.075C196.552 206.75 196.685 206.158 196.684 205.299C196.684 204.731 196.623 204.211 196.5 203.736C196.384 203.258 196.212 202.849 195.986 202.51C195.766 202.166 195.504 201.906 195.2 201.731C194.89 201.552 194.621 201.505 194.395 201.591C194.168 201.669 193.997 201.88 193.881 202.224C193.764 202.56 193.706 203.012 193.706 203.579C193.706 204.438 193.835 205.181 194.094 205.809C194.359 206.44 194.728 206.892 195.2 207.164Z" fill="white"/>
<path d="M200.759 206.61C201.419 206.991 201.959 207.534 202.379 208.24C202.806 208.949 203.019 209.651 203.019 210.346C203.019 211.056 202.809 211.524 202.389 211.752C201.968 211.98 201.445 211.913 200.817 211.55C200.196 211.192 199.679 210.669 199.265 209.982C198.857 209.298 198.644 208.604 198.624 207.898L199.672 208.503C199.685 208.876 199.798 209.241 200.012 209.595C200.225 209.95 200.494 210.221 200.817 210.408C201.147 210.598 201.419 210.628 201.632 210.497C201.852 210.37 201.962 210.116 201.962 209.735C201.962 209.608 201.946 209.476 201.913 209.338C201.888 209.203 201.849 209.073 201.797 208.946C201.745 208.811 201.681 208.68 201.603 208.554C201.532 208.43 201.451 208.313 201.36 208.201C201.27 208.089 201.17 207.986 201.06 207.893C200.956 207.803 200.843 207.723 200.72 207.652L199.012 206.666L198.886 206.425L199.235 203.053L202.573 204.98L202.573 206.078L200.08 204.638L199.934 206.134L200.759 206.61Z" fill="white"/>
<path d="M207.659 216.195L206.534 215.546L203.652 204.527L204.777 205.177L207.659 216.195Z" fill="white"/>
<path d="M210.239 215.713L212.645 217.103L212.645 218.245L208.231 215.696L208.231 215.371C209.194 214.711 209.89 214.205 210.316 213.854C210.75 213.499 211.038 213.206 211.18 212.974C211.322 212.743 211.393 212.474 211.393 212.168C211.393 211.951 211.351 211.736 211.267 211.523C211.189 211.314 211.076 211.122 210.927 210.946C210.785 210.767 210.617 210.621 210.423 210.509C210.119 210.334 209.873 210.297 209.686 210.397C209.505 210.494 209.414 210.707 209.414 211.036L209.414 211.204L208.366 210.599L208.366 210.431C208.366 209.759 208.554 209.326 208.929 209.131C209.304 208.93 209.799 209.006 210.413 209.361C211.015 209.708 211.503 210.2 211.878 210.834C212.26 211.473 212.451 212.121 212.451 212.778C212.451 213.122 212.396 213.422 212.286 213.68C212.182 213.941 211.969 214.233 211.646 214.554C211.329 214.871 210.86 215.258 210.239 215.713Z" fill="white"/>
<path d="M215.605 215.182C216.265 215.563 216.805 216.106 217.226 216.812C217.653 217.522 217.866 218.224 217.866 218.918C217.866 219.628 217.656 220.097 217.235 220.324C216.815 220.552 216.291 220.485 215.664 220.123C215.043 219.764 214.525 219.241 214.111 218.554C213.704 217.871 213.49 217.176 213.471 216.47L214.519 217.075C214.532 217.449 214.645 217.813 214.858 218.168C215.072 218.523 215.34 218.793 215.664 218.98C215.994 219.17 216.265 219.2 216.479 219.07C216.699 218.943 216.809 218.689 216.809 218.308C216.808 218.181 216.792 218.048 216.76 217.91C216.734 217.776 216.695 217.645 216.644 217.518C216.592 217.384 216.527 217.253 216.449 217.126C216.378 217.003 216.297 216.885 216.207 216.773C216.116 216.661 216.016 216.558 215.906 216.465C215.803 216.375 215.689 216.295 215.567 216.224L213.859 215.238L213.733 214.997L214.082 211.625L217.42 213.552L217.42 214.65L214.926 213.21L214.781 214.706L215.605 215.182Z" fill="white"/>
<path d="M97.6841 58.7817C98.1304 59.3082 98.4748 59.888 98.7174 60.521C98.9697 61.1484 99.0958 61.7757 99.0958 62.4031C99.0959 63.3442 98.7806 63.9631 98.15 64.26C97.5291 64.5624 96.7772 64.4588 95.8943 63.949L91.5576 61.445L91.5571 49.6818L95.7775 52.1186C96.6506 52.6227 97.3783 53.3342 97.9604 54.2528C98.5426 55.1603 98.8337 56.0454 98.8337 56.908C98.8337 57.4121 98.7319 57.8294 98.5281 58.1599C98.3244 58.4904 98.0431 58.6977 97.6841 58.7817ZM96.6944 56.0761C96.6944 55.8856 96.6653 55.7008 96.6071 55.5215C96.5586 55.3367 96.4858 55.1602 96.3888 54.9922C96.2918 54.8241 96.1705 54.6701 96.025 54.53C95.8891 54.3844 95.7339 54.2612 95.5593 54.1603L93.7256 53.1016L93.7257 55.6054L95.5594 56.6642C95.9086 56.8659 96.1851 56.9135 96.3889 56.8071C96.5926 56.6895 96.6944 56.4458 96.6944 56.0761ZM95.676 61.4871C96.0349 61.6944 96.326 61.7392 96.5491 61.6216C96.7722 61.504 96.8838 61.2491 96.8838 60.857C96.8838 60.4761 96.7722 60.098 96.549 59.7227C96.3259 59.3474 96.0348 59.0561 95.6759 58.8488L93.7258 57.7228L93.7259 60.3611L95.676 61.4871Z" fill="#191A38"/>
<path d="M107.356 58.8039L109.51 60.0475L109.51 71.8107L107.676 70.7519L103.063 60.7447L103.063 68.0882L100.895 66.8362L100.894 55.073L102.888 56.2242L107.356 65.9794L107.356 58.8039Z" fill="#191A38"/>
<path d="M116.509 76.1041C115.529 75.5384 114.637 74.7597 113.832 73.7682C113.026 72.7655 112.396 71.6676 111.94 70.4744C111.484 69.2701 111.256 68.0966 111.255 66.9539C111.255 65.2062 111.755 64.0327 112.754 63.4334C113.763 62.8396 115.015 62.9741 116.509 63.8368C117.751 64.5538 118.823 65.6042 119.725 66.9878C120.627 68.3714 121.2 69.8334 121.442 71.3738L119.23 70.0966C119.095 69.5589 118.896 69.0463 118.634 68.559C118.372 68.0604 118.056 67.6151 117.688 67.223C117.329 66.8252 116.936 66.5031 116.509 66.2567C115.645 65.7581 114.923 65.6993 114.341 66.0801C113.768 66.4554 113.482 67.1752 113.482 68.2395C113.482 69.2926 113.768 70.3373 114.341 71.3736C114.923 72.4155 115.646 73.1857 116.509 73.6843C117.179 74.0708 117.756 74.1857 118.241 74.0288C118.726 73.872 119.061 73.4715 119.245 72.8274L121.472 74.113C121.239 75.4349 120.666 76.2807 119.755 76.6504C118.852 77.0145 117.771 76.8324 116.509 76.1041Z" fill="#191A38"/>
<path d="M129.192 76.9741C129.638 77.5007 129.982 78.0805 130.225 78.7134C130.477 79.3408 130.603 79.9682 130.603 80.5956C130.603 81.5366 130.288 82.1556 129.658 82.4524C129.037 82.7549 128.285 82.6512 127.402 82.1415L123.065 79.6374L123.065 67.8742L127.285 70.311C128.158 70.8152 128.886 71.5266 129.468 72.4453C130.05 73.3528 130.341 74.2378 130.341 75.1005C130.341 75.6046 130.239 76.0219 130.036 76.3524C129.832 76.6829 129.551 76.8901 129.192 76.9741ZM128.202 74.2686C128.202 74.0781 128.173 73.8932 128.115 73.714C128.066 73.5291 127.993 73.3527 127.896 73.1846C127.799 73.0166 127.678 72.8625 127.532 72.7225C127.397 72.5769 127.241 72.4536 127.067 72.3528L125.233 71.294L125.233 73.7979L127.067 74.8567C127.416 75.0583 127.693 75.106 127.896 74.9995C128.1 74.8819 128.202 74.6383 128.202 74.2686ZM127.183 79.6796C127.542 79.8869 127.833 79.9317 128.057 79.8141C128.28 79.6964 128.391 79.4416 128.391 79.0495C128.391 78.6686 128.28 78.2904 128.057 77.9151C127.833 77.5398 127.542 77.2485 127.183 77.0413L125.233 75.9153L125.233 78.5536L127.183 79.6796Z" fill="#191A38"/>
<path d="M91.9865 122.527L91.9865 121.007L93.3739 121.808L94.6545 122.815L94.7434 122.599L93.6762 121.141L92.6979 119.426L93.6228 118.892L94.6189 120.597L95.3482 122.25L95.5794 122.281L95.3481 120.669L95.3481 119.066L96.6643 119.826L96.6643 121.429L96.4332 122.774L96.6644 123.01L97.3936 122.199L98.3896 121.644L99.3146 123.246L98.3364 123.832L97.2692 124.058L97.3581 124.376L98.6388 124.848L100.026 125.649L100.026 127.169L98.6388 126.368L97.3582 125.362L97.2692 125.577L98.3365 127.036L99.3148 128.751L98.3899 129.285L97.3938 127.58L96.6645 125.927L96.4333 125.896L96.6646 127.508L96.6646 129.11L95.3484 128.35L95.3483 126.748L95.5795 125.403L95.3483 125.167L94.6191 125.978L93.623 126.532L92.6981 124.93L93.6763 124.345L94.7435 124.119L94.6546 123.801L93.3739 123.328L91.9865 122.527Z" fill="white"/>
<path d="M101.592 128.073L101.592 126.554L102.979 127.355L104.26 128.361L104.349 128.145L103.282 126.687L102.303 124.972L103.228 124.438L104.224 126.143L104.954 127.796L105.185 127.827L104.954 126.215L104.954 124.613L106.27 125.373L106.27 126.975L106.039 128.32L106.27 128.556L106.999 127.745L107.995 127.191L108.92 128.793L107.942 129.378L106.875 129.604L106.964 129.922L108.244 130.395L109.632 131.196L109.632 132.716L108.244 131.914L106.964 130.908L106.875 131.124L107.942 132.582L108.92 134.297L107.996 134.831L106.999 133.126L106.27 131.473L106.039 131.442L106.27 133.054L106.27 134.656L104.954 133.896L104.954 132.294L105.185 130.949L104.954 130.713L104.225 131.524L103.229 132.079L102.304 130.477L103.282 129.891L104.349 129.665L104.26 129.347L102.98 128.875L101.592 128.073Z" fill="white"/>
<path d="M111.198 133.62L111.198 132.1L112.585 132.901L113.866 133.907L113.955 133.692L112.887 132.233L111.909 130.518L112.834 129.984L113.83 131.689L114.559 133.343L114.791 133.373L114.559 131.761L114.559 130.159L115.875 130.919L115.876 132.521L115.644 133.866L115.876 134.103L116.605 133.291L117.601 132.737L118.526 134.339L117.548 134.924L116.48 135.15L116.569 135.468L117.85 135.941L119.237 136.742L119.237 138.262L117.85 137.461L116.569 136.454L116.48 136.67L117.548 138.128L118.526 139.843L117.601 140.377L116.605 138.672L115.876 137.019L115.644 136.988L115.876 138.601L115.876 140.203L114.56 139.443L114.56 137.841L114.791 136.495L114.559 136.259L113.83 137.07L112.834 137.625L111.909 136.023L112.887 135.437L113.955 135.212L113.866 134.893L112.585 134.421L111.198 133.62Z" fill="white"/>
<path d="M120.803 139.166L120.803 137.646L122.191 138.447L123.471 139.454L123.56 139.238L122.493 137.78L121.515 136.065L122.44 135.531L123.436 137.235L124.165 138.889L124.396 138.92L124.165 137.307L124.165 135.705L125.481 136.465L125.481 138.067L125.25 139.413L125.481 139.649L126.21 138.838L127.206 138.283L128.131 139.885L127.153 140.47L126.086 140.696L126.175 141.015L127.456 141.487L128.843 142.288L128.843 143.808L127.456 143.007L126.175 142.001L126.086 142.216L127.153 143.675L128.132 145.39L127.207 145.924L126.211 144.219L125.481 142.565L125.25 142.535L125.481 144.147L125.481 145.749L124.165 144.989L124.165 143.387L124.396 142.042L124.165 141.805L123.436 142.617L122.44 143.171L121.515 141.569L122.493 140.984L123.56 140.758L123.471 140.439L122.191 139.967L120.803 139.166Z" fill="white"/>
<path d="M139.906 159.459C138.435 158.61 137.255 157.463 136.366 156.018C135.477 154.56 135.032 152.879 135.032 150.976L135.032 147.361C135.032 145.512 135.476 144.366 136.366 143.921C137.255 143.462 138.435 143.657 139.905 144.506C141.387 145.362 142.567 146.529 143.445 148.008C144.334 149.48 144.779 151.141 144.779 152.989L144.779 156.604C144.779 158.507 144.335 159.674 143.445 160.106C142.568 160.53 141.388 160.314 139.906 159.459ZM139.906 157.117C140.795 157.631 141.447 157.727 141.862 157.405C142.289 157.09 142.502 156.412 142.502 155.371L142.502 151.551C142.502 150.497 142.265 149.566 141.791 148.758C141.328 147.943 140.7 147.306 139.905 146.848C139.087 146.375 138.447 146.286 137.984 146.581C137.534 146.882 137.308 147.539 137.309 148.552L137.309 152.373C137.309 153.454 137.522 154.392 137.949 155.186C138.388 155.974 139.04 156.617 139.906 157.117Z" fill="white"/>
<path d="M151.012 165.872C150.088 165.338 149.281 164.694 148.593 163.941C147.918 163.195 147.39 162.376 147.01 161.486C146.643 160.603 146.459 159.696 146.459 158.765L148.771 160.1C148.771 160.675 148.943 161.274 149.287 161.897C149.643 162.527 150.218 163.071 151.012 163.53C151.819 163.996 152.435 164.112 152.862 163.879C153.289 163.633 153.502 163.092 153.502 162.257L153.502 160.778L153.182 160.593C152.981 160.751 152.672 160.833 152.257 160.84C151.854 160.853 151.249 160.627 150.443 160.162C149.732 159.751 149.068 159.19 148.451 158.478C147.834 157.766 147.336 156.964 146.957 156.074C146.577 155.171 146.388 154.24 146.388 153.281L146.388 153.035C146.388 152.076 146.583 151.354 146.974 150.868C147.366 150.382 147.917 150.146 148.629 150.159C149.34 150.159 150.17 150.433 151.119 150.981C152.067 151.529 152.891 152.21 153.591 153.025C154.291 153.839 154.83 154.719 155.21 155.664C155.589 156.609 155.779 157.554 155.779 158.498L155.779 163.407C155.779 164.571 155.572 165.423 155.157 165.964C154.754 166.498 154.19 166.748 153.467 166.714C152.756 166.686 151.937 166.406 151.012 165.872ZM151.083 158.437C151.581 158.724 152.008 158.868 152.364 158.868C152.732 158.875 153.01 158.748 153.2 158.488C153.402 158.235 153.502 157.855 153.502 157.348L153.502 157.184C153.502 156.417 153.283 155.688 152.844 154.996C152.417 154.298 151.83 153.733 151.083 153.302C150.336 152.87 149.743 152.754 149.305 152.953C148.878 153.144 148.664 153.624 148.664 154.39L148.664 154.555C148.664 155.061 148.759 155.554 148.949 156.033C149.151 156.52 149.435 156.971 149.803 157.389C150.17 157.807 150.597 158.156 151.083 158.437Z" fill="white"/>
<path d="M162.008 172.22C161.059 171.673 160.217 171.022 159.482 170.269C158.759 169.523 158.189 168.722 157.774 167.866C157.371 167.003 157.17 166.147 157.17 165.298L157.169 165.052C157.169 164.395 157.27 163.912 157.472 163.604C157.673 163.282 157.922 163.084 158.219 163.008C158.527 162.94 158.818 162.937 159.09 162.998L159.09 162.628C158.818 162.361 158.545 162.026 158.272 161.622C157.999 161.218 157.774 160.759 157.596 160.246C157.43 159.739 157.347 159.198 157.347 158.623L157.347 158.377C157.347 157.624 157.537 157.076 157.916 156.734C158.308 156.385 158.853 156.255 159.553 156.344C160.252 156.419 161.07 156.727 162.007 157.268C162.944 157.809 163.762 158.446 164.462 159.178C165.161 159.897 165.701 160.654 166.08 161.448C166.472 162.235 166.667 163.005 166.667 163.758L166.667 164.005C166.667 164.58 166.579 165.022 166.401 165.33C166.235 165.645 166.015 165.847 165.743 165.936C165.482 166.031 165.209 166.052 164.924 165.997L164.924 166.367C165.209 166.627 165.5 166.966 165.796 167.384C166.092 167.801 166.341 168.287 166.543 168.842C166.745 169.383 166.846 169.982 166.846 170.639L166.846 170.885C166.846 171.734 166.638 172.354 166.223 172.744C165.82 173.128 165.251 173.271 164.516 173.175C163.792 173.086 162.956 172.768 162.008 172.22ZM162.008 169.879C162.826 170.351 163.454 170.536 163.893 170.433C164.344 170.324 164.569 169.968 164.569 169.365L164.569 169.201C164.569 168.599 164.349 167.993 163.911 167.383C163.484 166.767 162.849 166.216 162.007 165.73C161.177 165.251 160.543 165.069 160.104 165.186C159.666 165.288 159.446 165.641 159.446 166.243L159.446 166.408C159.446 167.01 159.666 167.623 160.104 168.246C160.555 168.862 161.189 169.406 162.008 169.879ZM162.007 163.389C162.766 163.827 163.353 164.008 163.768 163.933C164.183 163.858 164.391 163.532 164.391 162.957L164.391 162.793C164.391 162.218 164.177 161.65 163.75 161.088C163.323 160.527 162.742 160.034 162.007 159.609C161.272 159.185 160.691 159.007 160.264 159.075C159.837 159.144 159.624 159.466 159.624 160.041L159.624 160.205C159.624 160.78 159.831 161.345 160.246 161.899C160.661 162.454 161.248 162.95 162.007 163.389Z" fill="white"/>
<path d="M169.493 176.255L169.493 175.721C169.493 175.187 169.529 174.756 169.6 174.427C169.671 174.085 169.825 173.742 170.062 173.4L174.242 167.29L174.242 166.961L167.625 163.141L167.625 160.799L176.59 165.975L176.59 169.097L172.179 175.649C172.025 175.875 171.918 176.094 171.859 176.306C171.799 176.519 171.77 176.803 171.77 177.159L171.77 177.569L169.493 176.255Z" fill="white"/>
<path d="M242.151 420.799L239.684 424.45C237.58 420.864 234.061 417.509 229.127 414.615C211.796 404.483 183.611 404.385 166.181 414.319C161.346 417.082 157.86 420.305 155.69 423.792L153.092 420.404V428.167C152.894 434.877 157.203 441.62 166.016 446.785C183.348 456.916 211.533 457.015 228.963 447.081C237.678 442.114 242.052 435.535 242.085 428.956V420.799H242.151Z" fill="#191A38"/>
<path d="M229.028 438.889C211.598 448.856 183.413 448.724 166.082 438.593C148.75 428.462 148.816 412.212 166.246 402.245C183.677 392.278 211.861 392.41 229.193 402.541C246.525 412.672 246.459 428.922 229.028 438.889Z" fill="#567FCF"/>
<path d="M229.028 438.889C211.598 448.856 183.413 448.724 166.082 438.593C148.75 428.462 148.816 412.212 166.246 402.245C183.677 392.278 211.861 392.41 229.193 402.541C246.525 412.672 246.459 428.922 229.028 438.889Z" fill="url(#paint4_linear_1_447)"/>
<path d="M197.818 442.543C188.083 442.543 178.349 440.372 170.949 436.063C163.779 431.885 159.866 426.326 159.899 420.438C159.899 414.55 163.911 409.024 171.113 404.912C185.814 396.491 209.69 396.623 224.325 405.143C231.495 409.32 235.408 414.879 235.375 420.767C235.375 426.655 231.363 432.181 224.161 436.293C216.893 440.438 207.355 442.543 197.818 442.543ZM197.423 399.419C188.017 399.419 178.645 401.458 171.442 405.57C164.503 409.55 160.655 414.813 160.622 420.438C160.622 426.063 164.404 431.392 171.311 435.405C185.748 443.826 209.263 443.924 223.766 435.635C230.705 431.655 234.553 426.392 234.586 420.767C234.586 415.142 230.804 409.813 223.898 405.8C216.597 401.557 206.994 399.419 197.39 399.419H197.423Z" fill="#191A38"/>
<path d="M223.964 435.961C209.329 444.316 185.683 444.217 171.114 435.73C156.544 427.244 156.61 413.56 171.245 405.205C185.88 396.85 209.526 396.949 224.095 405.435C238.664 413.922 238.599 427.606 223.964 435.961Z" fill="#567FCF"/>
<path d="M196.722 416.54L199.931 418.392C200.367 418.644 200.367 419.052 199.931 419.304L195.114 422.085C194.638 422.36 193.868 422.36 193.392 422.085L190.104 420.187C189.723 419.967 189.723 419.61 190.104 419.39L195.039 416.541C195.503 416.273 196.257 416.273 196.721 416.541L196.722 416.54Z" fill="#1A1A1A"/>
<path d="M197.056 423.204L201.873 420.423C202.31 420.171 203.016 420.17 203.453 420.422L206.661 422.274C207.126 422.542 207.125 422.978 206.661 423.246L201.726 426.095C201.345 426.315 200.727 426.315 200.346 426.095L197.057 424.197C196.582 423.922 196.582 423.477 197.057 423.203L197.056 423.204Z" fill="#1A1A1A"/>
<path d="M207.214 417.339L213.778 421.128C214.878 421.763 214.877 422.794 213.777 423.429L207.719 426.926L211.938 429.362L219.465 425.016C222.475 423.278 222.477 420.46 219.468 418.723L212.142 414.494L207.214 417.339Z" fill="#1A1A1A"/>
<path d="M199.686 430.812L191.781 426.249L186.715 429.174L196.608 434.885C198.2 435.804 200.781 435.803 202.373 434.884L209.997 430.482L205.778 428.047L200.989 430.812C200.631 431.019 200.045 431.02 199.686 430.812Z" fill="#1A1A1A"/>
<path d="M181.937 419.814L185.756 417.609L181.537 415.174L174.883 419.016C173.292 419.934 173.29 421.425 174.882 422.344L184.775 428.055L189.911 425.17L181.936 420.566C181.577 420.359 181.578 420.022 181.937 419.814Z" fill="#1A1A1A"/>
<path d="M191.975 409.148L183.478 414.054L187.696 416.489L194.723 412.432C195.825 411.796 197.61 411.796 198.711 412.431L205.274 416.22L210.202 413.375L202.876 409.146C199.866 407.409 194.986 407.41 191.975 409.148Z" fill="#1A1A1A"/>
<path d="M171.246 407.014C185.881 398.659 209.527 398.758 224.096 407.244C230.97 411.257 234.587 416.422 234.949 421.652C235.377 415.83 231.792 409.942 224.129 405.435C209.56 396.949 185.914 396.85 171.279 405.205C163.583 409.613 159.9 415.501 160.294 421.323C160.689 416.093 164.34 410.961 171.279 407.014H171.246Z" fill="#191A38"/>
<path d="M229.028 437.209C211.598 447.175 183.414 447.044 166.082 436.913C157.794 432.077 153.486 425.827 153.157 419.512C152.729 426.354 157.038 433.327 166.082 438.59C183.414 448.721 211.598 448.82 229.028 438.886C238.105 433.689 242.479 426.781 242.118 419.906C241.723 426.189 237.382 432.406 229.028 437.176V437.209Z" fill="#99FFB0"/>
<path d="M300.791 475.004L298.324 478.655C296.219 475.07 292.7 471.714 287.767 468.82C270.435 458.688 242.251 458.59 224.82 468.524C219.986 471.287 216.5 474.51 214.329 477.997L211.731 474.609V482.372C211.534 489.082 215.842 495.826 224.656 500.99C241.988 511.121 270.172 511.22 287.603 501.286C296.318 496.319 300.692 489.74 300.725 483.161V475.004H300.791Z" fill="#191A38"/>
<path d="M300.791 475.03C300.855 460.842 280.986 449.25 256.411 449.139C231.837 449.027 211.863 460.438 211.798 474.627C211.734 488.815 231.603 500.407 256.178 500.518C280.753 500.63 300.727 489.219 300.791 475.03Z" fill="#567FCF"/>
<path d="M300.791 475.03C300.855 460.842 280.986 449.25 256.411 449.139C231.837 449.027 211.863 460.438 211.798 474.627C211.734 488.815 231.603 500.407 256.178 500.518C280.753 500.63 300.727 489.219 300.791 475.03Z" fill="url(#paint5_linear_1_447)"/>
<path d="M256.494 496.742C246.759 496.742 237.024 494.571 229.625 490.262C222.455 486.084 218.542 480.525 218.575 474.637C218.575 468.716 222.587 463.223 229.789 459.111C244.49 450.69 268.366 450.822 283.001 459.342C290.171 463.519 294.084 469.078 294.051 474.966C294.051 480.887 290.039 486.38 282.837 490.492C275.569 494.637 266.031 496.742 256.494 496.742ZM256.099 453.618C246.693 453.618 237.32 455.657 230.118 459.769C223.179 463.749 219.331 469.012 219.298 474.637C219.298 480.262 223.08 485.591 229.986 489.604C244.424 498.025 267.939 498.123 282.442 489.834C289.381 485.854 293.229 480.591 293.262 474.966C293.262 469.341 289.48 464.012 282.574 459.999C275.273 455.756 265.669 453.618 256.066 453.618H256.099Z" fill="#191A38"/>
<path d="M282.637 490.166C268.002 498.521 244.356 498.422 229.786 489.936C215.217 481.449 215.283 467.765 229.918 459.41C244.553 451.055 268.199 451.154 282.768 459.64C297.337 468.127 297.272 481.811 282.637 490.166Z" fill="#567FCF"/>
<path d="M254.722 470.54L257.931 472.392C258.367 472.644 258.367 473.052 257.931 473.304L253.114 476.085C252.638 476.36 251.868 476.36 251.392 476.085L248.104 474.187C247.723 473.967 247.723 473.61 248.104 473.39L253.039 470.541C253.503 470.273 254.257 470.273 254.721 470.541L254.722 470.54Z" fill="#1A1A1A"/>
<path d="M255.056 477.204L259.873 474.423C260.31 474.171 261.016 474.17 261.453 474.422L264.661 476.274C265.126 476.542 265.125 476.978 264.661 477.246L259.726 480.095C259.345 480.315 258.727 480.315 258.346 480.095L255.057 478.197C254.582 477.922 254.582 477.477 255.057 477.203L255.056 477.204Z" fill="#1A1A1A"/>
<path d="M265.214 471.339L271.778 475.128C272.878 475.763 272.877 476.794 271.777 477.429L265.719 480.926L269.938 483.362L277.465 479.016C280.475 477.278 280.477 474.46 277.468 472.723L270.142 468.494L265.214 471.339Z" fill="#1A1A1A"/>
<path d="M257.686 484.812L249.781 480.249L244.715 483.174L254.608 488.885C256.2 489.804 258.781 489.803 260.373 488.884L267.997 484.482L263.778 482.047L258.989 484.812C258.631 485.019 258.045 485.02 257.686 484.812Z" fill="#1A1A1A"/>
<path d="M239.937 473.814L243.756 471.609L239.537 469.174L232.883 473.016C231.292 473.934 231.29 475.425 232.882 476.344L242.775 482.055L247.911 479.17L239.936 474.566C239.577 474.359 239.578 474.022 239.937 473.814Z" fill="#1A1A1A"/>
<path d="M249.975 463.148L241.478 468.054L245.696 470.489L252.723 466.432C253.825 465.796 255.61 465.796 256.711 466.431L263.274 470.22L268.202 467.375L260.876 463.146C257.866 461.409 252.986 461.41 249.975 463.148Z" fill="#1A1A1A"/>
<path d="M229.919 461.219C244.554 452.864 268.2 452.963 282.769 461.449C289.642 465.463 293.26 470.627 293.622 475.857C294.049 470.035 290.465 464.147 282.802 459.64C268.233 451.154 244.587 451.055 229.952 459.41C222.256 463.818 218.573 469.706 218.967 475.528C219.362 470.298 223.012 465.166 229.952 461.219H229.919Z" fill="#191A38"/>
<path d="M287.669 491.418C270.239 501.384 242.054 501.253 224.722 491.122C216.435 486.286 212.126 480.036 211.798 473.721C211.37 480.563 215.678 487.536 224.722 492.799C242.054 502.93 270.239 503.029 287.669 493.095C296.746 487.898 301.12 480.99 300.758 474.148C300.364 480.431 296.023 486.648 287.669 491.418Z" fill="#99FFB0"/>
<path d="M211.794 490.434L209.328 494.085C207.223 490.499 203.704 487.144 198.771 484.249C181.439 474.118 153.255 474.019 135.824 483.953C130.99 486.716 127.504 489.94 125.333 493.427L122.735 490.039V497.802C122.538 504.512 126.846 511.255 135.66 516.42C152.992 526.551 181.176 526.65 198.607 516.716C207.322 511.749 211.696 505.17 211.729 498.591V490.434H211.794Z" fill="#191A38"/>
<path d="M211.785 490.462C211.849 476.274 191.98 464.682 167.405 464.57C142.831 464.459 122.857 475.87 122.792 490.058C122.728 504.246 142.598 515.839 167.172 515.95C191.747 516.062 211.721 504.65 211.785 490.462Z" fill="#567FCF"/>
<path d="M211.785 490.462C211.849 476.274 191.98 464.682 167.405 464.57C142.831 464.459 122.857 475.87 122.792 490.058C122.728 504.246 142.598 515.839 167.172 515.95C191.747 516.062 211.721 504.65 211.785 490.462Z" fill="url(#paint6_linear_1_447)"/>
<path d="M167.463 512.172C157.728 512.172 147.993 510.001 140.593 505.691C133.424 501.514 129.51 495.955 129.543 490.067C129.543 484.179 133.556 478.653 140.758 474.541C155.459 466.12 179.335 466.252 193.97 474.771C201.139 478.949 205.053 484.508 205.02 490.396C205.02 496.284 201.008 501.81 193.805 505.922C186.537 510.066 177 512.172 167.463 512.172ZM167.068 469.048C157.662 469.048 148.289 471.087 141.087 475.199C134.148 479.179 130.3 484.442 130.267 490.067C130.267 495.692 134.049 501.021 140.955 505.034C155.393 513.454 178.907 513.553 193.411 505.264C200.35 501.284 204.198 496.021 204.231 490.396C204.231 484.771 200.449 479.442 193.542 475.429C186.241 471.186 176.638 469.048 167.035 469.048H167.068Z" fill="#191A38"/>
<path d="M193.608 505.625C178.973 513.98 155.327 513.881 140.758 505.395C126.189 496.908 126.255 483.224 140.89 474.869C155.525 466.514 179.171 466.613 193.74 475.099C208.309 483.586 208.243 497.27 193.608 505.625Z" fill="#567FCF"/>
<path d="M165.722 485.54L168.931 487.392C169.367 487.644 169.367 488.052 168.931 488.304L164.114 491.085C163.638 491.36 162.868 491.36 162.392 491.085L159.104 489.187C158.723 488.967 158.723 488.61 159.104 488.39L164.039 485.541C164.503 485.273 165.257 485.273 165.721 485.541L165.722 485.54Z" fill="#1A1A1A"/>
<path d="M166.056 492.204L170.873 489.423C171.31 489.171 172.016 489.17 172.453 489.422L175.661 491.274C176.126 491.542 176.125 491.978 175.661 492.246L170.726 495.095C170.345 495.315 169.727 495.315 169.346 495.095L166.057 493.197C165.582 492.922 165.582 492.477 166.057 492.203L166.056 492.204Z" fill="#1A1A1A"/>
<path d="M176.214 486.339L182.778 490.128C183.878 490.763 183.877 491.794 182.777 492.429L176.719 495.926L180.938 498.362L188.465 494.016C191.475 492.278 191.477 489.46 188.468 487.723L181.142 483.494L176.214 486.339Z" fill="#1A1A1A"/>
<path d="M168.686 499.812L160.781 495.249L155.715 498.174L165.608 503.885C167.2 504.804 169.781 504.803 171.373 503.884L178.997 499.482L174.778 497.047L169.989 499.812C169.631 500.019 169.045 500.02 168.686 499.812Z" fill="#1A1A1A"/>
<path d="M150.937 488.814L154.756 486.609L150.537 484.174L143.883 488.016C142.292 488.934 142.29 490.425 143.882 491.344L153.775 497.055L158.911 494.17L150.936 489.566C150.577 489.359 150.578 489.022 150.937 488.814Z" fill="#1A1A1A"/>
<path d="M160.975 478.148L152.478 483.054L156.696 485.489L163.723 481.432C164.825 480.796 166.61 480.796 167.711 481.431L174.274 485.22L179.202 482.375L171.876 478.146C168.866 476.409 163.986 476.41 160.975 478.148Z" fill="#1A1A1A"/>
<path d="M140.889 476.649C155.524 468.294 179.171 468.393 193.74 476.879C200.613 480.892 204.231 486.057 204.593 491.287C205.02 485.465 201.435 479.577 193.773 475.07C179.203 466.583 155.557 466.485 140.922 474.84C133.227 479.248 129.543 485.136 129.938 490.958C130.333 485.728 133.983 480.596 140.922 476.649H140.889Z" fill="#191A38"/>
<path d="M198.673 506.847C181.243 516.814 153.058 516.683 135.726 506.551C127.439 501.716 123.13 495.466 122.802 489.15C122.374 495.992 126.682 502.966 135.726 508.229C153.058 518.36 181.243 518.459 198.673 508.525C207.75 503.328 212.124 496.42 211.762 489.545C211.368 495.828 207.026 502.045 198.673 506.814V506.847Z" fill="#99FFB0"/>
<path d="M265.402 465.172L262.935 468.823C260.831 465.237 257.312 461.882 252.378 458.988C235.047 448.856 206.862 448.758 189.432 458.692C184.597 461.455 181.111 464.678 178.941 468.165L176.343 464.777V472.54C176.145 479.25 180.453 485.993 189.267 491.158C206.599 501.289 234.784 501.388 252.214 491.454C260.929 486.487 265.303 479.908 265.336 473.329V465.172H265.402Z" fill="#191A38"/>
<path d="M252.279 483.295C234.849 493.262 206.664 493.13 189.333 482.999C172.001 472.868 172.067 456.618 189.497 446.651C206.928 436.685 235.112 436.816 252.444 446.947C269.776 457.079 269.71 473.328 252.279 483.295Z" fill="#567FCF"/>
<path d="M252.279 483.295C234.849 493.262 206.664 493.13 189.333 482.999C172.001 472.868 172.067 456.618 189.497 446.651C206.928 436.685 235.112 436.816 252.444 446.947C269.776 457.079 269.71 473.328 252.279 483.295Z" fill="url(#paint7_linear_1_447)"/>
<path d="M221.101 486.912C211.367 486.912 201.632 484.741 194.232 480.432C187.063 476.254 183.149 470.695 183.182 464.807C183.182 458.919 187.194 453.393 194.397 449.281C209.097 440.86 232.974 440.992 247.609 449.511C254.778 453.689 258.692 459.248 258.659 465.136C258.659 471.024 254.647 476.55 247.444 480.662C240.176 484.807 230.639 486.912 221.101 486.912ZM220.707 443.788C211.301 443.788 201.928 445.827 194.725 449.939C187.786 453.919 183.938 459.182 183.905 464.807C183.905 470.432 187.688 475.761 194.594 479.774C209.032 488.195 232.546 488.293 247.049 480.004C253.989 476.024 257.837 470.761 257.869 465.136C257.869 459.511 254.087 454.182 247.181 450.169C239.88 445.926 230.277 443.788 220.674 443.788H220.707Z" fill="#191A38"/>
<path d="M247.248 480.336C232.613 488.691 208.967 488.592 194.398 480.106C179.829 471.619 179.894 457.935 194.529 449.58C209.164 441.225 232.81 441.324 247.38 449.81C261.949 458.297 261.883 471.981 247.248 480.336Z" fill="#567FCF"/>
<path d="M219.722 460.54L222.931 462.392C223.367 462.644 223.367 463.052 222.931 463.304L218.114 466.085C217.638 466.36 216.868 466.36 216.392 466.085L213.104 464.187C212.723 463.967 212.723 463.61 213.104 463.39L218.039 460.541C218.503 460.273 219.257 460.273 219.721 460.541L219.722 460.54Z" fill="#1A1A1A"/>
<path d="M220.056 467.204L224.873 464.423C225.31 464.171 226.016 464.17 226.453 464.422L229.661 466.274C230.126 466.542 230.125 466.978 229.661 467.246L224.726 470.095C224.345 470.315 223.727 470.315 223.346 470.095L220.057 468.197C219.582 467.922 219.582 467.477 220.057 467.203L220.056 467.204Z" fill="#1A1A1A"/>
<path d="M230.214 461.339L236.778 465.128C237.878 465.763 237.877 466.794 236.777 467.429L230.719 470.926L234.938 473.362L242.465 469.016C245.475 467.278 245.477 464.46 242.468 462.723L235.142 458.494L230.214 461.339Z" fill="#1A1A1A"/>
<path d="M222.686 474.812L214.781 470.249L209.715 473.174L219.608 478.885C221.2 479.804 223.781 479.803 225.373 478.884L232.997 474.482L228.778 472.047L223.989 474.812C223.631 475.019 223.045 475.02 222.686 474.812Z" fill="#1A1A1A"/>
<path d="M204.937 463.814L208.756 461.609L204.537 459.174L197.883 463.016C196.292 463.934 196.29 465.425 197.882 466.344L207.775 472.055L212.911 469.17L204.936 464.566C204.577 464.359 204.578 464.022 204.937 463.814Z" fill="#1A1A1A"/>
<path d="M214.975 453.148L206.478 458.054L210.696 460.489L217.723 456.432C218.825 455.796 220.61 455.796 221.711 456.431L228.274 460.22L233.202 457.375L225.876 453.146C222.866 451.409 217.986 451.41 214.975 453.148Z" fill="#1A1A1A"/>
<path d="M194.53 451.389C209.165 443.034 232.811 443.133 247.38 451.619C254.254 455.632 257.872 460.797 258.233 466.027C258.661 460.205 255.076 454.317 247.413 449.81C232.844 441.323 209.198 441.225 194.563 449.58C186.867 453.988 183.184 459.876 183.579 465.698C183.973 460.468 187.624 455.336 194.563 451.389H194.53Z" fill="#191A38"/>
<path d="M252.279 481.586C234.849 491.552 206.664 491.421 189.333 481.29C181.045 476.454 176.737 470.204 176.408 463.889C175.98 470.731 180.289 477.704 189.333 482.967C206.664 493.098 234.849 493.197 252.279 483.263C261.356 478.066 265.73 471.158 265.369 464.283C264.974 470.566 260.633 476.783 252.279 481.553V481.586Z" fill="#99FFB0"/>
<path d="M271.486 448.06L269.019 451.712C266.915 448.126 263.396 444.771 258.462 441.876C241.131 431.745 212.946 431.646 195.516 441.58C190.681 444.343 187.195 447.567 185.025 451.054L182.427 447.666V455.429C182.229 462.139 186.537 468.882 195.351 474.047C212.683 484.178 240.868 484.277 258.298 474.343C267.013 469.376 271.387 462.797 271.42 456.218V448.06H271.486Z" fill="#191A38"/>
<path d="M271.517 448.097C271.581 433.909 251.711 422.317 227.137 422.205C202.562 422.094 182.588 433.505 182.524 447.693C182.46 461.881 202.329 473.473 226.904 473.585C251.478 473.696 271.452 462.285 271.517 448.097Z" fill="#567FCF"/>
<path d="M271.517 448.097C271.581 433.909 251.711 422.317 227.137 422.205C202.562 422.094 182.588 433.505 182.524 447.693C182.46 461.881 202.329 473.473 226.904 473.585C251.478 473.696 271.452 462.285 271.517 448.097Z" fill="url(#paint8_linear_1_447)"/>
<path d="M227.185 469.802C217.451 469.802 207.716 467.631 200.316 463.322C193.147 459.145 189.233 453.586 189.266 447.698C189.266 441.81 193.278 436.284 200.481 432.172C215.181 423.751 239.058 423.883 253.693 432.402C260.862 436.58 264.776 442.139 264.743 448.027C264.743 453.948 260.731 459.441 253.528 463.553C246.26 467.697 236.723 469.802 227.185 469.802ZM226.791 426.679C217.385 426.679 208.012 428.718 200.809 432.83C193.87 436.81 190.022 442.073 189.989 447.698C189.989 453.323 193.772 458.651 200.678 462.664C215.116 471.085 238.63 471.184 253.133 462.895C260.073 458.915 263.921 453.652 263.953 448.027C263.953 442.402 260.171 437.073 253.265 433.06C245.964 428.817 236.361 426.679 226.758 426.679H226.791Z" fill="#191A38"/>
<path d="M253.332 463.224C238.697 471.579 215.051 471.481 200.482 462.994C185.913 454.508 185.978 440.824 200.613 432.469C215.248 424.114 238.894 424.212 253.463 432.699C268.033 441.186 267.967 454.869 253.332 463.224Z" fill="#567FCF"/>
<path d="M225.722 443.54L228.931 445.392C229.367 445.644 229.367 446.052 228.931 446.304L224.114 449.085C223.638 449.36 222.868 449.36 222.392 449.085L219.104 447.187C218.723 446.967 218.723 446.61 219.104 446.39L224.039 443.541C224.503 443.273 225.257 443.273 225.721 443.541L225.722 443.54Z" fill="#1A1A1A"/>
<path d="M226.056 450.204L230.873 447.423C231.31 447.171 232.016 447.17 232.453 447.422L235.661 449.274C236.126 449.542 236.125 449.978 235.661 450.246L230.726 453.095C230.345 453.315 229.727 453.315 229.346 453.095L226.057 451.197C225.582 450.922 225.582 450.477 226.057 450.203L226.056 450.204Z" fill="#1A1A1A"/>
<path d="M236.214 444.339L242.778 448.128C243.878 448.763 243.877 449.794 242.777 450.429L236.719 453.926L240.938 456.362L248.465 452.016C251.475 450.278 251.477 447.46 248.468 445.723L241.142 441.494L236.214 444.339Z" fill="#1A1A1A"/>
<path d="M228.686 457.812L220.781 453.249L215.715 456.174L225.608 461.885C227.2 462.804 229.781 462.803 231.373 461.884L238.997 457.482L234.778 455.047L229.989 457.812C229.631 458.019 229.045 458.02 228.686 457.812Z" fill="#1A1A1A"/>
<path d="M210.937 446.814L214.756 444.609L210.537 442.174L203.883 446.016C202.292 446.934 202.29 448.425 203.882 449.344L213.775 455.055L218.911 452.17L210.936 447.566C210.577 447.359 210.578 447.022 210.937 446.814Z" fill="#1A1A1A"/>
<path d="M220.975 436.148L212.478 441.054L216.696 443.489L223.723 439.432C224.825 438.796 226.61 438.796 227.711 439.431L234.274 443.22L239.202 440.375L231.876 436.146C228.866 434.409 223.986 434.41 220.975 436.148Z" fill="#1A1A1A"/>
<path d="M200.611 434.278C215.246 425.923 238.892 426.021 253.461 434.508C260.335 438.521 263.952 443.685 264.314 448.916C264.742 443.093 261.157 437.205 253.494 432.699C238.925 424.212 215.279 424.114 200.644 432.469C192.948 436.876 189.265 442.764 189.66 448.587C190.054 443.357 193.705 438.225 200.644 434.278H200.611Z" fill="#191A38"/>
<path d="M258.396 464.47C240.965 474.437 212.781 474.306 195.449 464.174C187.161 459.339 182.853 453.089 182.524 446.773C182.097 453.615 186.405 460.589 195.449 465.852C212.781 475.983 240.965 476.082 258.396 466.148C267.473 460.951 271.847 454.043 271.485 447.168C271.09 453.451 266.749 459.668 258.396 464.437V464.47Z" fill="#99FFB0"/>
<path d="M416.008 376.382L360.712 316.988L305.415 312.512C305.415 312.512 296.532 387.487 360.712 467.007C424.891 461.615 416.008 376.382 416.008 376.382Z" fill="#191A38"/>
<path d="M305.43 312.512L292.988 319.701L348.284 324.177L360.727 316.988L305.43 312.512Z" fill="#99FFB0"/>
<path d="M403.583 383.569L348.286 324.175L325.554 321.869L292.989 319.699C292.989 319.699 284.106 394.675 348.286 474.194C412.466 468.802 403.583 383.569 403.583 383.569Z" fill="url(#paint9_linear_1_447)"/>
<path opacity="0.2" d="M390.475 386.089L347.078 339.519L329.235 337.714L303.682 336.014C303.682 336.014 296.713 394.814 347.078 457.165C397.443 452.935 390.475 386.089 390.475 386.089Z" fill="white"/>
<path d="M279.104 380.656L275.947 383.715C274.599 379.768 271.869 375.755 267.626 371.939C252.728 358.486 225.169 352.598 206.061 358.782C200.766 360.492 196.688 362.959 193.86 365.887L192.018 362.038L190.407 369.637C188.828 376.15 191.656 383.65 199.253 390.492C214.151 403.945 241.711 409.833 260.819 403.649C270.356 400.557 275.98 395.031 277.361 388.617L279.071 380.656H279.104Z" fill="#191A38"/>
<path d="M262.53 395.72C243.423 401.904 215.863 396.016 200.965 382.563C186.067 369.109 189.454 353.189 208.562 347.004C227.669 340.82 255.229 346.708 270.127 360.162C285.025 373.616 281.638 389.536 262.53 395.72Z" fill="#567FCF"/>
<path d="M262.53 395.72C243.423 401.904 215.863 396.016 200.965 382.563C186.067 369.109 189.454 353.189 208.562 347.004C227.669 340.82 255.229 346.708 270.127 360.162C285.025 373.616 281.638 389.536 262.53 395.72Z" fill="url(#paint10_linear_1_447)"/>
<path d="M231.254 392.857C221.716 390.851 212.639 386.739 206.259 381.015C200.109 375.456 197.413 369.206 198.629 363.45C199.879 357.661 204.878 353.088 212.771 350.523C228.886 345.293 252.236 350.293 264.832 361.641C270.982 367.2 273.712 373.45 272.462 379.206C271.212 384.996 266.213 389.568 258.32 392.133C250.329 394.699 240.594 394.798 231.254 392.857ZM239.706 350.556C230.497 348.615 220.894 348.714 213.034 351.246C205.404 353.713 200.57 358.088 199.386 363.582C198.202 369.075 200.833 375.062 206.785 380.423C219.184 391.607 242.205 396.541 258.09 391.41C265.72 388.943 270.554 384.568 271.738 379.042C272.922 373.548 270.291 367.562 264.339 362.2C258.09 356.542 249.112 352.496 239.706 350.523V350.556Z" fill="#191A38"/>
<path d="M258.221 391.807C242.205 397.004 219.052 392.037 206.555 380.755C194.058 369.472 196.886 356.117 212.935 350.92C228.951 345.723 252.104 350.69 264.601 361.972C277.099 373.255 274.27 386.61 258.221 391.807Z" fill="#567FCF"/>
<path d="M233.722 367.54L236.931 369.392C237.367 369.644 237.367 370.052 236.931 370.304L232.114 373.085C231.638 373.36 230.868 373.36 230.392 373.085L227.104 371.187C226.723 370.967 226.723 370.61 227.104 370.39L232.039 367.541C232.503 367.273 233.257 367.273 233.721 367.541L233.722 367.54Z" fill="#1A1A1A"/>
<path d="M234.056 374.204L238.873 371.423C239.31 371.171 240.016 371.17 240.453 371.422L243.661 373.274C244.126 373.542 244.125 373.978 243.661 374.246L238.726 377.095C238.345 377.315 237.727 377.315 237.346 377.095L234.057 375.197C233.582 374.922 233.582 374.477 234.057 374.203L234.056 374.204Z" fill="#1A1A1A"/>
<path d="M244.214 368.339L250.778 372.128C251.878 372.763 251.877 373.794 250.777 374.429L244.719 377.926L248.938 380.362L256.465 376.016C259.475 374.278 259.477 371.46 256.468 369.723L249.142 365.494L244.214 368.339Z" fill="#1A1A1A"/>
<path d="M236.686 381.812L228.781 377.249L223.715 380.174L233.608 385.885C235.2 386.804 237.781 386.803 239.373 385.884L246.997 381.482L242.778 379.047L237.989 381.812C237.631 382.019 237.045 382.02 236.686 381.812Z" fill="#1A1A1A"/>
<path d="M218.937 370.814L222.756 368.609L218.537 366.174L211.883 370.016C210.292 370.934 210.29 372.425 211.882 373.344L221.775 379.055L226.911 376.17L218.936 371.566C218.577 371.359 218.578 371.022 218.937 370.814Z" fill="#1A1A1A"/>
<path d="M228.975 360.148L220.478 365.054L224.696 367.489L231.723 363.432C232.825 362.796 234.61 362.796 235.711 363.431L242.274 367.22L247.202 364.375L239.876 360.146C236.866 358.409 231.986 358.41 228.975 360.148Z" fill="#1A1A1A"/>
<path d="M212.54 352.661C228.556 347.464 251.709 352.431 264.206 363.713C270.126 369.042 272.592 374.864 271.869 380.029C273.48 374.437 271.178 367.891 264.568 361.937C252.07 350.655 228.918 345.688 212.901 350.885C204.449 353.615 199.681 358.615 198.859 364.404C200.306 359.371 204.943 355.095 212.54 352.628V352.661Z" fill="#191A38"/>
<path d="M262.891 394.043C243.783 400.227 216.223 394.339 201.325 380.885C194.189 374.438 191.262 367.465 192.248 361.215C190.439 367.827 193.202 375.524 200.996 382.53C215.894 395.984 243.454 401.872 262.562 395.688C272.527 392.464 278.183 386.576 279.236 379.8C277.558 385.885 272.033 391.082 262.891 394.01V394.043Z" fill="#99FFB0"/>
<path d="M233.879 252.637L229.932 254.611C229.866 250.466 228.452 245.795 225.591 240.861C215.495 223.526 191.026 209.514 170.932 209.612C165.374 209.612 160.737 210.731 157.152 212.704L156.56 208.461L152.712 215.204C149.226 220.928 149.654 228.921 154.817 237.769C164.914 255.104 189.382 269.117 209.476 269.019C219.507 268.986 226.545 265.433 229.801 259.71L233.846 252.637H233.879Z" fill="#191A38"/>
<path d="M213.555 261.949C193.494 262.048 169.025 248.035 158.896 230.7C148.8 213.365 156.857 199.22 176.918 199.155C196.98 199.089 221.448 213.069 231.578 230.404C241.674 247.739 233.617 261.883 213.555 261.949Z" fill="#27A391"/>
<path d="M213.555 261.949C193.494 262.048 169.025 248.035 158.896 230.7C148.8 213.365 156.857 199.22 176.918 199.155C196.98 199.089 221.448 213.069 231.578 230.404C241.674 247.739 233.617 261.883 213.555 261.949Z" fill="url(#paint11_linear_1_447)"/>
<path d="M184.614 249.744C176.129 244.942 168.729 238.264 164.421 230.863C160.244 223.692 159.553 216.916 162.48 211.818C165.407 206.686 171.59 203.857 179.878 203.824C196.815 203.759 217.534 215.6 226.085 230.238C230.262 237.409 230.952 244.152 228.025 249.284C225.098 254.415 218.915 257.244 210.628 257.277C202.241 257.31 192.934 254.415 184.614 249.744ZM205.497 212.015C197.308 207.377 188.133 204.548 179.878 204.581C171.886 204.614 165.934 207.311 163.138 212.212C160.343 217.081 161.033 223.594 165.079 230.501C173.498 244.942 193.921 256.619 210.628 256.553C218.652 256.52 224.572 253.823 227.367 248.922C230.163 244.054 229.472 237.541 225.427 230.633C221.185 223.331 213.851 216.752 205.497 212.015Z" fill="#5175D1"/>
<path d="M210.627 256.915C193.789 256.981 173.234 245.238 164.749 230.699C156.264 216.127 163.039 204.285 179.877 204.219C196.715 204.153 217.27 215.896 225.755 230.435C234.24 244.974 227.465 256.849 210.627 256.915Z" fill="#567FCF"/>
<path d="M197.267 226.053L199.12 229.261C199.372 229.697 199.168 230.051 198.663 230.051H193.101C192.552 230.051 191.885 229.665 191.61 229.19L189.711 225.902C189.491 225.521 189.67 225.212 190.11 225.212H195.808C196.345 225.212 196.997 225.589 197.265 226.053H197.267Z" fill="#1A1A1A"/>
<path d="M194.224 231.991H199.786C200.29 231.991 200.903 232.344 201.155 232.78L203.007 235.988C203.275 236.453 203.057 236.829 202.521 236.829H196.823C196.383 236.829 195.847 236.52 195.628 236.139L193.728 232.851C193.454 232.376 193.677 231.991 194.226 231.991H194.224Z" fill="#1A1A1A"/>
<path d="M205.953 231.991L209.743 238.554C210.378 239.654 209.863 240.546 208.592 240.546H201.597L204.033 244.764H212.724C216.201 244.764 217.611 242.325 215.873 239.316L211.643 231.991H205.953Z" fill="#1A1A1A"/>
<path d="M192.697 239.895L188.133 231.991H182.283L187.995 241.883C188.914 243.475 191.151 244.764 192.988 244.764H201.792L199.356 240.546H193.826C193.413 240.546 192.905 240.254 192.697 239.895Z" fill="#1A1A1A"/>
<path d="M182.825 221.495H187.235L184.799 217.277H177.116C175.278 217.277 174.531 218.567 175.45 220.159L181.163 230.051L187.053 230.12L182.449 222.147C182.241 221.788 182.41 221.495 182.825 221.495Z" fill="#1A1A1A"/>
<path d="M196.851 217.277H187.04L189.475 221.495H197.589C198.862 221.495 200.408 222.388 201.043 223.489L204.833 230.051H210.523L206.293 222.726C204.555 219.717 200.328 217.277 196.851 217.277Z" fill="#1A1A1A"/>
<path d="M178.989 205.732C195.828 205.666 216.382 217.41 224.867 231.949C228.88 238.823 229.471 245.106 227.202 249.843C230.458 245.007 230.228 238.067 225.755 230.403C217.27 215.831 196.716 204.087 179.877 204.186C170.998 204.219 164.913 207.541 162.381 212.804C165.308 208.462 170.997 205.798 178.989 205.732Z" fill="#191A38"/>
<path d="M214.376 260.469C194.315 260.567 169.846 246.555 159.717 229.22C154.883 220.93 154.225 213.365 157.02 207.707C153.271 213.463 153.6 221.621 158.862 230.667C168.959 248.002 193.427 262.015 213.521 261.916C223.979 261.883 231.182 258.002 234.24 251.851C230.82 257.147 223.946 260.403 214.343 260.436L214.376 260.469Z" fill="#99FFB0"/>
<path d="M203.64 335.476L203.311 339.851C199.694 337.779 194.991 336.595 189.301 336.496C169.24 336.233 144.64 350.048 134.412 367.285C131.584 372.054 130.137 376.594 129.972 380.672L126.059 378.995L129.874 385.771C132.998 391.692 140.069 395.442 150.297 395.573C170.358 395.836 194.958 382.021 205.186 364.785C210.316 356.166 210.875 348.305 207.652 342.548L203.673 335.443L203.64 335.476Z" fill="#191A38"/>
<path d="M201.141 357.713C190.88 374.983 166.313 388.765 146.252 388.502C126.191 388.239 118.232 374.062 128.46 356.792C138.721 339.523 163.288 325.741 183.349 326.004C203.411 326.267 211.369 340.444 201.141 357.713Z" fill="#567FCF"/>
<path d="M201.141 357.713C190.88 374.983 166.313 388.765 146.252 388.502C126.191 388.239 118.232 374.062 128.46 356.792C138.721 339.523 163.288 325.741 183.349 326.004C203.411 326.267 211.369 340.444 201.141 357.713Z" fill="url(#paint12_linear_1_447)"/>
<path d="M175.785 376.234C167.3 381.036 157.763 383.964 149.212 383.865C140.925 383.766 134.775 380.872 131.881 375.707C128.987 370.543 129.743 363.8 133.985 356.662C142.635 342.09 163.453 330.413 180.423 330.61C188.71 330.709 194.86 333.603 197.754 338.768C200.648 343.932 199.892 350.675 195.649 357.813C191.374 365.017 184.106 371.53 175.818 376.234H175.785ZM154.178 338.899C145.989 343.537 138.82 349.952 134.61 357.057C130.532 363.931 129.776 370.444 132.538 375.346C135.301 380.247 141.221 383.01 149.212 383.109C165.919 383.306 186.441 371.793 194.992 357.451C199.07 350.576 199.826 344.063 197.064 339.162C194.301 334.261 188.381 331.498 180.39 331.399C171.938 331.301 162.532 334.195 154.178 338.899Z" fill="#191A38"/>
<path d="M195.321 357.614C186.704 372.087 166.084 383.666 149.212 383.468C132.374 383.271 125.665 371.33 134.281 356.857C142.898 342.384 163.518 330.805 180.39 331.002C197.228 331.2 203.937 343.14 195.321 357.614Z" fill="#567FCF"/>
<path d="M162.258 354.057L165.963 354.056C166.467 354.056 166.671 354.41 166.419 354.846L163.638 359.663C163.363 360.139 162.696 360.524 162.147 360.524L158.35 360.524C157.91 360.524 157.732 360.215 157.952 359.834L160.801 354.899C161.069 354.435 161.722 354.058 162.258 354.058L162.258 354.057Z" fill="#1A1A1A"/>
<path d="M165.879 359.661L168.66 354.844C168.912 354.407 169.524 354.054 170.028 354.054L173.733 354.053C174.269 354.053 174.486 354.43 174.218 354.895L171.369 359.829C171.149 360.211 170.614 360.52 170.174 360.52L166.376 360.52C165.828 360.52 165.605 360.135 165.88 359.659L165.879 359.661Z" fill="#1A1A1A"/>
<path d="M171.744 349.503L179.323 349.503C180.593 349.502 181.108 350.395 180.472 351.496L176.975 357.553L181.846 357.553L186.192 350.026C187.93 347.015 186.522 344.574 183.048 344.575L174.589 344.575L171.744 349.503Z" fill="#1A1A1A"/>
<path d="M171.961 364.935L162.834 364.936L159.909 370.002L171.332 370.001C173.17 370.001 175.405 368.709 176.324 367.118L180.725 359.494L175.854 359.494L173.089 364.284C172.883 364.641 172.376 364.935 171.961 364.935Z" fill="#1A1A1A"/>
<path d="M151.091 364.285L153.295 360.466L148.424 360.467L144.583 367.12C143.664 368.712 144.408 370.003 146.246 370.003L157.669 370.002L160.674 364.936L151.466 364.937C151.052 364.937 150.883 364.644 151.091 364.285Z" fill="#1A1A1A"/>
<path d="M154.451 350.029L149.545 358.526L154.416 358.526L158.473 351.499C159.109 350.397 160.655 349.504 161.926 349.504L169.504 349.504L172.349 344.576L163.89 344.576C160.415 344.577 156.189 347.018 154.451 350.029Z" fill="#1A1A1A"/>
<path d="M135.168 358.438C143.785 343.965 164.405 332.386 181.276 332.584C189.235 332.682 194.925 335.413 197.819 339.787C195.352 334.524 189.301 331.136 180.421 331.038C163.583 330.84 142.93 342.419 134.313 356.892C129.775 364.524 129.479 371.431 132.702 376.333C130.465 371.596 131.123 365.313 135.201 358.471L135.168 358.438Z" fill="#191A38"/>
<path d="M200.318 356.232C190.057 373.501 165.49 387.283 145.429 387.02C135.826 386.889 129.018 383.566 125.598 378.271C128.623 384.455 135.76 388.369 146.251 388.501C166.312 388.764 190.912 374.948 201.14 357.712C206.501 348.699 206.863 340.541 203.179 334.752C205.942 340.41 205.218 347.975 200.318 356.232Z" fill="#99FFB0"/>
<path d="M408.884 334.816V339.224C405.134 337.481 400.333 336.691 394.676 337.086C374.648 338.566 351.33 354.388 342.615 372.447C340.182 377.447 339.162 382.085 339.327 386.164L335.281 384.815L339.655 391.262C343.273 396.887 350.64 400.012 360.835 399.288C380.863 397.808 404.181 381.986 412.896 363.927C417.27 354.881 417.171 347.02 413.455 341.559L408.884 334.816Z" fill="#191A38"/>
<path d="M408.29 357.156C399.542 375.215 376.225 391.069 356.229 392.517C336.201 393.997 327.058 380.51 335.806 362.452C344.554 344.393 367.871 328.538 387.867 327.091C407.863 325.644 417.038 339.097 408.29 357.156Z" fill="#567FCF"/>
<path d="M408.29 357.156C399.542 375.215 376.225 391.069 356.229 392.517C336.201 393.997 327.058 380.51 335.806 362.452C344.554 344.393 367.871 328.538 387.867 327.091C407.863 325.644 417.038 339.097 408.29 357.156Z" fill="url(#paint13_linear_1_447)"/>
<path d="M384.612 377.815C376.587 383.309 367.313 387.059 358.795 387.684C350.54 388.276 344.16 385.94 340.838 381.039C337.517 376.171 337.681 369.362 341.299 361.895C348.666 346.632 368.431 333.211 385.335 331.994C393.59 331.402 399.97 333.738 403.292 338.639C406.613 343.54 406.449 350.316 402.831 357.783C399.181 365.316 392.505 372.421 384.644 377.815H384.612ZM359.913 342.455C352.152 347.783 345.574 354.757 341.957 362.224C338.47 369.428 338.273 375.973 341.43 380.611C344.588 385.249 350.737 387.519 358.729 386.927C375.403 385.71 394.873 372.487 402.141 357.454C405.627 350.25 405.824 343.705 402.667 339.066C399.51 334.428 393.36 332.159 385.368 332.751C376.949 333.376 367.806 337.06 359.913 342.487V342.455Z" fill="#191A38"/>
<path d="M384.148 377.696C401.217 366.102 409.629 348.711 402.935 338.852C396.241 328.993 376.977 330.399 359.907 341.993C342.838 353.587 334.427 370.978 341.12 380.837C347.814 390.696 367.078 389.29 384.148 377.696Z" fill="#567FCF"/>
<path d="M369.34 355.482L373.045 355.482C373.549 355.482 373.753 355.836 373.5 356.272L370.719 361.089C370.445 361.565 369.778 361.95 369.229 361.95L365.431 361.95C364.991 361.95 364.813 361.641 365.033 361.26L367.882 356.325C368.151 355.861 368.803 355.484 369.339 355.484L369.34 355.482Z" fill="#1A1A1A"/>
<path d="M372.961 361.087L375.742 356.27C375.994 355.833 376.606 355.48 377.11 355.48L380.815 355.479C381.351 355.479 381.568 355.856 381.3 356.321L378.451 361.255C378.231 361.637 377.696 361.946 377.256 361.946L373.458 361.946C372.909 361.946 372.687 361.561 372.962 361.085L372.961 361.087Z" fill="#1A1A1A"/>
<path d="M378.825 350.929L386.405 350.928C387.675 350.928 388.19 351.821 387.554 352.922L384.057 358.979L388.928 358.979L393.273 351.452C395.012 348.441 393.604 346 390.13 346.001L381.671 346.001L378.825 350.929Z" fill="#1A1A1A"/>
<path d="M379.043 366.361L369.915 366.362L366.99 371.428L378.413 371.427C380.251 371.427 382.487 370.135 383.405 368.544L387.807 360.92L382.936 360.92L380.171 365.709C379.965 366.067 379.457 366.361 379.043 366.361Z" fill="#1A1A1A"/>
<path d="M358.172 365.711L360.377 361.892L355.506 361.893L351.665 368.546C350.746 370.138 351.489 371.429 353.327 371.429L364.751 371.428L367.756 366.362L358.548 366.363C358.134 366.363 357.965 366.07 358.172 365.711Z" fill="#1A1A1A"/>
<path d="M361.532 351.455L356.627 359.952L361.498 359.952L365.554 352.925C366.191 351.823 367.736 350.93 369.008 350.93L376.586 350.93L379.431 346.002L370.972 346.002C367.497 346.003 363.271 348.444 361.532 351.455Z" fill="#1A1A1A"/>
<path d="M342.612 363.538C349.946 348.374 369.514 335.085 386.32 333.835C394.279 333.243 400.166 335.48 403.421 339.592C400.494 334.559 394.18 331.697 385.333 332.355C368.528 333.572 348.96 346.894 341.626 362.058C337.745 370.051 338.074 376.959 341.692 381.564C339.061 377.025 339.192 370.742 342.645 363.538H342.612Z" fill="#191A38"/>
<path d="M407.337 355.771C398.589 373.83 375.272 389.685 355.276 391.132C345.706 391.823 338.602 389.125 334.787 384.093C338.306 389.981 345.805 393.303 356.23 392.513C376.258 391.033 399.576 375.211 408.291 357.152C412.862 347.745 412.533 339.554 408.357 334.127C411.58 339.521 411.514 347.12 407.337 355.771Z" fill="#99FFB0"/>
<defs>
<filter id="filter0_b_1_447" x="183.291" y="24.8008" width="195.479" height="484.596" filterUnits="userSpaceOnUse" color-interpolation-filters="sRGB">
<feFlood flood-opacity="0" result="BackgroundImageFix"/>
<feGaussianBlur in="BackgroundImageFix" stdDeviation="4"/>
<feComposite in2="SourceAlpha" operator="in" result="effect1_backgroundBlur_1_447"/>
<feBlend mode="normal" in="SourceGraphic" in2="effect1_backgroundBlur_1_447" result="shape"/>
</filter>
<linearGradient id="paint0_linear_1_447" x1="21.0211" y1="204.825" x2="50.0193" y2="262.882" gradientUnits="userSpaceOnUse">
<stop stop-color="#517DD1"/>
<stop offset="0.972649" stop-color="#2BAC47"/>
</linearGradient>
<linearGradient id="paint1_linear_1_447" x1="21.0001" y1="209" x2="482" y2="527" gradientUnits="userSpaceOnUse">
<stop stop-color="#517DD1"/>
<stop offset="0.972649" stop-color="#2BAC47"/>
</linearGradient>
<linearGradient id="paint2_linear_1_447" x1="-12.2105" y1="-13.0286" x2="209.472" y2="178.348" gradientUnits="userSpaceOnUse">
<stop stop-color="#7BFFEC"/>
<stop offset="0.53125" stop-color="#FE7041"/>
<stop offset="1" stop-color="#A3A3EC"/>
</linearGradient>
<linearGradient id="paint3_linear_1_447" x1="148.974" y1="28.2906" x2="113.788" y2="215.164" gradientUnits="userSpaceOnUse">
<stop stop-color="#517DD1"/>
<stop offset="0.972649" stop-color="#2BAC47"/>
</linearGradient>
<linearGradient id="paint4_linear_1_447" x1="192.692" y1="384.207" x2="223.97" y2="471.812" gradientUnits="userSpaceOnUse">
<stop stop-color="#517DD1"/>
<stop offset="0.972649" stop-color="#2BAC47"/>
</linearGradient>
<linearGradient id="paint5_linear_1_447" x1="193.358" y1="477.397" x2="273.396" y2="392.489" gradientUnits="userSpaceOnUse">
<stop stop-color="#517DD1"/>
<stop offset="0.972649" stop-color="#2BAC47"/>
</linearGradient>
<linearGradient id="paint6_linear_1_447" x1="104.352" y1="492.829" x2="184.391" y2="407.921" gradientUnits="userSpaceOnUse">
<stop stop-color="#517DD1"/>
<stop offset="0.972649" stop-color="#2BAC47"/>
</linearGradient>
<linearGradient id="paint7_linear_1_447" x1="215.943" y1="428.614" x2="247.221" y2="516.218" gradientUnits="userSpaceOnUse">
<stop stop-color="#517DD1"/>
<stop offset="0.972649" stop-color="#2BAC47"/>
</linearGradient>
<linearGradient id="paint8_linear_1_447" x1="164.083" y1="450.464" x2="244.122" y2="365.556" gradientUnits="userSpaceOnUse">
<stop stop-color="#517DD1"/>
<stop offset="0.972649" stop-color="#2BAC47"/>
</linearGradient>
<linearGradient id="paint9_linear_1_447" x1="342.095" y1="287.708" x2="427.916" y2="436.03" gradientUnits="userSpaceOnUse">
<stop stop-color="#517DD1"/>
<stop offset="0.972649" stop-color="#2BAC47"/>
</linearGradient>
<linearGradient id="paint10_linear_1_447" x1="230.672" y1="333.441" x2="264.731" y2="423.587" gradientUnits="userSpaceOnUse">
<stop stop-color="#517DD1"/>
<stop offset="0.972649" stop-color="#2BAC47"/>
</linearGradient>
<linearGradient id="paint11_linear_1_447" x1="190.715" y1="186.151" x2="237.576" y2="284.421" gradientUnits="userSpaceOnUse">
<stop stop-color="#517DD1"/>
<stop offset="0.972649" stop-color="#2BAC47"/>
</linearGradient>
<linearGradient id="paint12_linear_1_447" x1="160.267" y1="313.057" x2="206.7" y2="411.134" gradientUnits="userSpaceOnUse">
<stop stop-color="#517DD1"/>
<stop offset="0.972649" stop-color="#2BAC47"/>
</linearGradient>
<linearGradient id="paint13_linear_1_447" x1="367.65" y1="313.391" x2="418.846" y2="413.224" gradientUnits="userSpaceOnUse">
<stop stop-color="#517DD1"/>
<stop offset="0.972649" stop-color="#2BAC47"/>
</linearGradient>
</defs>
</svg>
